<?xml version="1.0" encoding="UTF-8"?>
<svg version="1.1" xmlns="http://www.w3.org/2000/svg" width="428" height="362">
<path d="M0 0 C141.24 0 282.48 0 428 0 C428 119.46 428 238.92 428 362 C286.76 362 145.52 362 0 362 C0 242.54 0 123.08 0 0 Z " fill="#FEFED8" transform="translate(0,0)"/>
<path d="M0 0 C141.24 0 282.48 0 428 0 C428 119.46 428 238.92 428 362 C286.76 362 145.52 362 0 362 C0 242.54 0 123.08 0 0 Z M38 16 C37.979375 41.1625 37.95875 66.325 37.9375 92.25 C37.928396 100.09813477 37.91929199 107.94626953 37.90991211 116.03222656 C37.8461511 158.54228661 37.8461511 158.54228661 38.44140625 201.046875 C38.46093794 201.95701607 38.48046963 202.86715714 38.50059319 203.80487823 C38.55558551 206.25394295 38.61836186 208.70261692 38.68579102 211.15136719 C38.74018089 213.12807404 38.74018089 213.12807404 38.79566956 215.14471436 C38.67946517 217.89774187 38.67946517 217.89774187 40 219 C41.5348297 219.09319449 43.07392082 219.117458 44.61157227 219.11352539 C46.08298424 219.11341209 46.08298424 219.11341209 47.5841217 219.11329651 C48.6507756 219.10813522 49.7174295 219.10297394 50.81640625 219.09765625 C51.9025975 219.0962413 52.98878876 219.09482635 54.1078949 219.09336853 C57.59279075 219.08775048 61.07762342 219.07519492 64.5625 219.0625 C66.91861887 219.05748733 69.27473874 219.05292402 71.63085938 219.04882812 C77.42059464 219.03777519 83.21029281 219.02101951 89 219 C89 219.66 89 220.32 89 221 C72.17 221 55.34 221 38 221 C38 254.99 38 288.98 38 324 C71.99 324 105.98 324 141 324 C141 306.84 141 289.68 141 272 C124.17 272 107.34 272 90 272 C90.33 271.34 90.66 270.68 91 270 C91.33 270.33 91.66 270.66 92 271 C93.56547048 271.09326716 95.13512772 271.11745582 96.70336914 271.11352539 C97.71838501 271.11340454 98.73340088 271.11328369 99.7791748 271.11315918 C100.85364868 271.10804321 101.92812256 271.10292725 103.03515625 271.09765625 C104.01705933 271.09664917 104.9989624 271.09564209 106.01062012 271.09460449 C109.69459188 271.08935445 113.37854706 271.07539332 117.0625 271.0625 C129.4065625 271.0315625 129.4065625 271.0315625 142 271 C142.33 287.83 142.66 304.66 143 322 C146.06044872 323.53022436 149.28507095 323.24129267 152.64868164 323.31420898 C153.8774833 323.34519652 153.8774833 323.34519652 155.13110924 323.37681007 C157.95318155 323.44431565 160.77533808 323.50233257 163.59765625 323.55859375 C165.10210643 323.59017987 165.10210643 323.59017987 166.63694954 323.6224041 C198.5361876 324.2710604 230.44685499 324.11490836 262.35095114 324.07428223 C272.1253329 324.06214633 281.89971695 324.05387922 291.67410278 324.04586792 C292.51992064 324.04517406 293.36573849 324.04448021 294.23718718 324.04376533 C298.54362095 324.04024159 302.85005474 324.03674769 307.15648854 324.0332669 C314.72054735 324.02713918 322.28460595 324.0207562 329.84866457 324.01438482 C333.50609956 324.01130616 337.16353457 324.00824311 340.82096958 324.00517941 C342.01906051 324.00417514 343.21715144 324.00317087 344.45154816 324.00213617 C345.29253727 324.00143123 346.13352637 324.0007263 347 324 C347.0228683 285.05145348 347.04049921 246.10290784 347.05106533 207.15435595 C347.0523161 202.56042349 347.05361041 197.96649104 347.05493164 193.37255859 C347.05519395 192.45795509 347.05545626 191.5433516 347.05572652 190.60103284 C347.06008272 175.77463676 347.06796999 160.94824453 347.0771528 146.12185074 C347.08649073 130.91865449 347.09205591 115.71546027 347.09408849 100.51226127 C347.09546343 91.12437877 347.09981244 81.73650718 347.10791647 72.34862803 C347.11318565 65.91876634 347.1148039 59.48891033 347.11350138 53.05904664 C347.11285827 49.3444526 347.11387247 45.62987769 347.11920547 41.91528702 C347.12493408 37.89599612 347.12299906 33.87674641 347.12025452 29.85745239 C347.12316736 28.6726479 347.1260802 27.4878434 347.12908131 26.26713574 C347.12709026 25.1972346 347.12509921 24.12733345 347.12304783 23.02501106 C347.12342755 22.09621513 347.12380727 21.16741921 347.1241985 20.21047795 C347.14411275 17.95794718 347.14411275 17.95794718 346 16 C244.36 16 142.72 16 38 16 Z " fill="#FDFDFD" transform="translate(0,0)"/>
<path d="M0 0 C17.16 0 34.32 0 52 0 C52 16.83 52 33.66 52 51 C68.83 51 85.66 51 103 51 C103 67.83 103 84.66 103 102 C86.5 102.33 70 102.66 53 103 C52.71061763 119.40994336 52.71061763 119.40994336 52.43188477 135.82006836 C52.39378006 137.86833408 52.35531251 139.9165931 52.31640625 141.96484375 C52.29993042 143.03931763 52.28345459 144.1137915 52.26647949 145.2208252 C52.24629761 146.23584106 52.22611572 147.25085693 52.20532227 148.29663086 C52.18977798 149.18265488 52.1742337 150.06867889 52.15821838 150.98155212 C52 153 52 153 51 154 C34.17 154 17.34 154 0 154 C0 103.18 0 52.36 0 0 Z " fill="#7DCBB9" transform="translate(38,16)"/>
<path d="M0 0 C17.16 0 34.32 0 52 0 C52 16.83 52 33.66 52 51 C68.83 51 85.66 51 103 51 C103 68.16 103 85.32 103 103 C69.01 103 35.02 103 0 103 C0 69.01 0 35.02 0 0 Z " fill="#ECF7B5" transform="translate(38,221)"/>
<path d="M0 0 C0.94082932 0.00359528 1.88165863 0.00719055 2.85099792 0.01089478 C4.3288829 0.01067574 4.3288829 0.01067574 5.83662415 0.01045227 C9.11023623 0.01115185 12.3837922 0.01894632 15.65739441 0.02676392 C17.92040984 0.02862794 20.18342567 0.03005191 22.44644165 0.03105164 C28.41577764 0.03487807 34.38508948 0.04470942 40.35441589 0.05575562 C47.50962067 0.06776099 54.66483351 0.07237138 61.82004547 0.07820892 C72.70204319 0.08792111 83.58398786 0.1070768 94.46598816 0.12442017 C94.46598816 17.28442017 94.46598816 34.44442017 94.46598816 52.12442017 C60.47598816 52.12442017 26.48598816 52.12442017 -8.53401184 52.12442017 C-7.51220227 0.01213194 -7.51220227 0.01213194 0 0 Z " fill="#A6DAB6" transform="translate(97.53401184082031,117.87557983398438)"/>
<path d="M0 0 C0 0.66 0 1.32 0 2 C-2.64 2 -5.28 2 -8 2 C-8 21.47 -8 40.94 -8 61 C-5.36 61 -2.72 61 0 61 C0 61.66 0 62.32 0 63 C-2.64 63 -5.28 63 -8 63 C-8 82.8 -8 102.6 -8 123 C-5.36 123 -2.72 123 0 123 C0 123.66 0 124.32 0 125 C-2.64 125 -5.28 125 -8 125 C-8 144.8 -8 164.6 -8 185 C-5.36 185 -2.72 185 0 185 C0 185.66 0 186.32 0 187 C-2.64 187 -5.28 187 -8 187 C-7.67 206.14 -7.34 225.28 -7 245 C-4.69 245.33 -2.38 245.66 0 246 C0 246.66 0 247.32 0 248 C-3.3 248 -6.6 248 -10 248 C-10.66 246.02 -11.32 244.04 -12 242 C-12 244.31 -12 246.62 -12 249 C-11.01 249 -10.02 249 -9 249 C-9.00333092 249.85777542 -9.00333092 249.85777542 -9.00672913 250.73287964 C-9.02880483 256.66973243 -9.0439162 262.60657362 -9.05493164 268.54345703 C-9.05996909 270.76090976 -9.06679922 272.97835916 -9.07543945 275.19580078 C-9.08753072 278.37793805 -9.0932341 281.56003151 -9.09765625 284.7421875 C-9.10281754 285.73805878 -9.10797882 286.73393005 -9.11329651 287.75997925 C-9.11337204 288.68078278 -9.11344757 289.6015863 -9.11352539 290.55029297 C-9.11685631 291.76940872 -9.11685631 291.76940872 -9.12025452 293.01315308 C-9.12584658 295.07527359 -9.12584658 295.07527359 -8 297 C-7.77377919 298.70363822 -7.59111527 300.41328701 -7.4375 302.125 C-7.35371094 303.03507812 -7.26992188 303.94515625 -7.18359375 304.8828125 C-7.12300781 305.58148438 -7.06242187 306.28015625 -7 307 C-4.69 307.33 -2.38 307.66 0 308 C0 308.66 0 309.32 0 310 C-1.45742463 310.08096803 -2.91612807 310.13917774 -4.375 310.1875 C-5.18710937 310.22230469 -5.99921875 310.25710938 -6.8359375 310.29296875 C-7.55007813 310.19628906 -8.26421875 310.09960938 -9 310 C-9.99 308.515 -9.99 308.515 -11 307 C-14.3 307.33 -17.6 307.66 -21 308 C-22.09826363 304.70520912 -22.11386079 302.30393719 -22.09765625 298.83544922 C-22.09270142 296.92733963 -22.09270142 296.92733963 -22.08764648 294.98068237 C-22.08352753 294.30071072 -22.07940857 293.62073906 -22.07516479 292.9201622 C-22.06237331 290.78352611 -22.05587734 288.64695237 -22.05102539 286.51028442 C-22.03766712 281.1983724 -22.01358376 275.88651894 -21.98962402 270.574646 C-21.96978993 266.0927373 -21.95418564 261.61085154 -21.94406128 257.12891006 C-21.93763729 255.03689709 -21.92512438 252.94497921 -21.91235352 250.85299683 C-21.90905029 249.5620108 -21.90574707 248.27102478 -21.90234375 246.94091797 C-21.89710693 245.81523407 -21.89187012 244.68955017 -21.88647461 243.52975464 C-21.97070523 240.91083906 -22.16839559 238.47821605 -22.49957943 235.89276409 C-23.05809968 230.97691405 -23.13682979 226.12929647 -23.12025452 221.1860199 C-23.12110894 220.23911303 -23.12196337 219.29220616 -23.12284368 218.31660515 C-23.12448155 215.16604716 -23.119005 212.01554326 -23.11352539 208.86499023 C-23.11324313 206.59768169 -23.11340202 204.33037306 -23.1139679 202.06306458 C-23.11425434 195.92328943 -23.10838227 189.7835339 -23.10139394 183.6437633 C-23.09513499 177.22158073 -23.09455459 170.79939768 -23.09336853 164.37721252 C-23.09061539 153.60295204 -23.08437275 142.82870011 -23.07543945 132.05444336 C-23.06625059 120.9603682 -23.05917697 109.866295 -23.05493164 98.7722168 C-23.05466892 98.08757233 -23.05440619 97.40292785 -23.05413551 96.69753658 C-23.0528304 93.26263591 -23.05156671 89.82773523 -23.05032361 86.39283454 C-23.03996873 57.92855143 -23.02229123 29.4642761 -23 1 C-20.60297038 0.83296683 -18.20583278 0.66788314 -15.80859375 0.50390625 C-14.79750549 0.4331488 -14.79750549 0.4331488 -13.76599121 0.36096191 C-9.16009346 0.04791248 -4.61364965 -0.09415612 0 0 Z " fill="#6EA6B0" transform="translate(389,15)"/>
<path d="M0 0 C17.16 0 34.32 0 52 0 C52 17.16 52 34.32 52 52 C34.84 52 17.68 52 0 52 C0 34.84 0 17.68 0 0 Z " fill="#D0ECB4" transform="translate(192,272)"/>
<path d="M0 0 C16.83 0 33.66 0 51 0 C51 17.16 51 34.32 51 52 C34.17 52 17.34 52 0 52 C0 34.84 0 17.68 0 0 Z " fill="#32A2BD" transform="translate(90,272)"/>
<path d="M0 0 C16.83 0 33.66 0 51 0 C51 17.16 51 34.32 51 52 C34.17 52 17.34 52 0 52 C0 34.84 0 17.68 0 0 Z " fill="#EEF8B7" transform="translate(295,272)"/>
<path d="M0 0 C17.16 0 34.32 0 52 0 C52 16.83 52 33.66 52 51 C34.84 51 17.68 51 0 51 C0 34.17 0 17.34 0 0 Z " fill="#0A1D55" transform="translate(38,221)"/>
<path d="M0 0 C17.16 0 34.32 0 52 0 C52 16.83 52 33.66 52 51 C34.84 51 17.68 51 0 51 C0 34.17 0 17.34 0 0 Z " fill="#0A1D54" transform="translate(192,170)"/>
<path d="M0 0 C17.16 0 34.32 0 52 0 C52 16.83 52 33.66 52 51 C34.84 51 17.68 51 0 51 C0 34.17 0 17.34 0 0 Z " fill="#254A9D" transform="translate(38,16)"/>
<path d="M0 0 C17.16 0 34.32 0 52 0 C52.020625 8.229375 52.04125 16.45875 52.0625 24.9375 C52.071604 27.53874756 52.08070801 30.13999512 52.09008789 32.82006836 C52.09300687 34.8683263 52.09555547 36.91658481 52.09765625 38.96484375 C52.10277222 40.03931763 52.10788818 41.1137915 52.11315918 42.2208252 C52.11334045 43.743349 52.11334045 43.743349 52.11352539 45.29663086 C52.115746 46.18265488 52.11796661 47.06867889 52.12025452 47.98155212 C52 50 52 50 51 51 C49.40389018 51.09333705 47.80366572 51.11745372 46.20483398 51.11352539 C45.16951538 51.11340454 44.13419678 51.11328369 43.06750488 51.11315918 C41.42340637 51.10548523 41.42340637 51.10548523 39.74609375 51.09765625 C38.74453247 51.09664917 37.74297119 51.09564209 36.71105957 51.09460449 C32.95319481 51.08935429 29.19534631 51.07539317 25.4375 51.0625 C17.043125 51.041875 8.64875 51.02125 0 51 C0 34.17 0 17.34 0 0 Z " fill="#A3D9B8" transform="translate(38,67)"/>
<path d="M0 0 C16.83 0 33.66 0 51 0 C51.64825624 7.13081864 52.11305692 13.74566396 51.87890625 20.82421875 C51.85824097 21.59946899 51.83757568 22.37471924 51.81628418 23.17346191 C51.73876319 26.01167664 51.65001713 28.84957592 51.5625 31.6875 C51.2840625 41.2471875 51.2840625 41.2471875 51 51 C34.17 51 17.34 51 0 51 C0 34.17 0 17.34 0 0 Z " fill="#E5F4B2" transform="translate(90,16)"/>
<path d="M0 0 C16.83 0 33.66 0 51 0 C51 16.83 51 33.66 51 51 C34.17 51 17.34 51 0 51 C0 34.17 0 17.34 0 0 Z " fill="#2082B5" transform="translate(90,67)"/>
<path d="M0 0 C0 0.66 0 1.32 0 2 C-2.64 2 -5.28 2 -8 2 C-8 21.47 -8 40.94 -8 61 C-5.36 61 -2.72 61 0 61 C0 61.66 0 62.32 0 63 C-2.64 63 -5.28 63 -8 63 C-8 82.8 -8 102.6 -8 123 C-5.36 123 -2.72 123 0 123 C0 123.66 0 124.32 0 125 C-2.97 125 -5.94 125 -9 125 C-10.36216584 122.27566832 -10.15489787 120.08711848 -10.18945312 117.03735352 C-10.20617065 115.78588028 -10.22288818 114.53440704 -10.2401123 113.24501038 C-10.24679428 112.57441149 -10.25347626 111.9038126 -10.26036072 111.21289253 C-10.28138219 109.11571848 -10.30840601 107.01869868 -10.33703613 104.9216156 C-10.39674873 100.4686363 -10.44888803 96.01558522 -10.5 91.5625 C-10.55923277 86.40633559 -10.62155032 81.25024713 -10.69187927 76.09422112 C-10.71844691 74.02748424 -10.73926676 71.9607397 -10.7598877 69.89393616 C-10.77660522 68.63931076 -10.79332275 67.38468536 -10.81054688 66.09204102 C-10.82307495 64.98554703 -10.83560303 63.87905304 -10.84851074 62.73902893 C-10.88452509 59.90749835 -10.88452509 59.90749835 -12 57 C-11.34 57 -10.68 57 -10 57 C-10.0729126 56.35417969 -10.1458252 55.70835938 -10.22094727 55.04296875 C-10.85583567 48.63601895 -11.07280663 42.30631889 -11.02734375 35.875 C-11.02183502 35.07400879 -11.01632629 34.27301758 -11.01065063 33.44775391 C-10.98298754 30.11528077 -10.94777284 26.78298525 -10.90405273 23.45068359 C-10.87390358 20.9879485 -10.85611892 18.52536021 -10.83984375 16.0625 C-10.82638412 15.31145996 -10.8129245 14.56041992 -10.79905701 13.78662109 C-10.78080672 9.99621947 -10.94476289 7.23566799 -13 4 C-13 3.67 -13 3.34 -13 3 C-14.98 3 -16.96 3 -19 3 C-21.50550324 6.80563507 -21.27530512 10.67742833 -21.24291992 15.06640625 C-21.24481827 15.87676834 -21.24671661 16.68713043 -21.24867249 17.52204895 C-21.25237757 20.20229768 -21.24167222 22.88227529 -21.23046875 25.5625 C-21.22927571 27.43375619 -21.22882405 29.30501298 -21.2290802 31.17626953 C-21.22751531 35.10371641 -21.21923089 39.03107216 -21.20581055 42.95849609 C-21.18891466 47.96362289 -21.18499368 52.96864869 -21.18575573 57.97380066 C-21.18548197 61.8431289 -21.17996647 65.71243558 -21.17275429 69.58175659 C-21.16959614 71.42511838 -21.16760697 73.26848258 -21.16686058 75.11184692 C-21.15935212 83.97200413 -21.14969174 92.73753698 -20.12129211 101.55224609 C-19.92028243 105.60875244 -20.89845381 109.1121899 -22 113 C-22.33 113 -22.66 113 -23 113 C-23 76.04 -23 39.08 -23 1 C-6.125 -0.125 -6.125 -0.125 0 0 Z " fill="#202D5B" transform="translate(389,15)"/>
<path d="M0 0 C0.33 0 0.66 0 1 0 C1 16.17 1 32.34 1 49 C30.16090631 49.69528108 59.30560344 50.12853284 88.47265625 50.31640625 C89.7331722 50.3245256 89.7331722 50.3245256 91.01915312 50.33280897 C101.3854591 50.39900387 111.75179612 50.45928151 122.11815012 50.51740873 C131.07429443 50.56777402 140.03041214 50.62230997 148.98653042 50.67708123 C167.32432878 50.78913868 185.66215245 50.89632072 204 51 C204 51.33 204 51.66 204 52 C177.69701418 52.02333109 151.39402991 52.04098021 125.09103584 52.05181217 C112.87888366 52.05697468 100.6667379 52.06401653 88.45458984 52.07543945 C77.8140045 52.08538766 67.1734238 52.09185376 56.53283393 52.09408849 C50.89556228 52.09539537 45.25830393 52.09847976 39.62103653 52.10573006 C34.32045502 52.11249242 29.01989236 52.11461651 23.71930695 52.11310768 C21.76895165 52.11338391 19.81859575 52.11538776 17.86824417 52.11920547 C15.21520932 52.12414607 12.56224656 52.1229969 9.90921021 52.12025452 C8.7389914 52.12462378 8.7389914 52.12462378 7.5451318 52.12908131 C2.22824242 52.11412121 2.22824242 52.11412121 0 51 C0 34.17 0 17.34 0 0 Z " fill="#FAFEEB" transform="translate(142,273)"/>
<path d="M0 0 C16.83 0 33.66 0 51 0 C51.64825624 7.13081864 52.11305692 13.74566396 51.87890625 20.82421875 C51.85824097 21.59946899 51.83757568 22.37471924 51.81628418 23.17346191 C51.73876319 26.01167664 51.65001713 28.84957592 51.5625 31.6875 C51.2840625 41.2471875 51.2840625 41.2471875 51 51 C34.17 51 17.34 51 0 51 C0 34.17 0 17.34 0 0 Z M2 1 C2 16.84 2 32.68 2 49 C17.84 49 33.68 49 50 49 C50 33.16 50 17.32 50 1 C34.16 1 18.32 1 2 1 Z " fill="#DDF4CC" transform="translate(90,16)"/>
<path d="M0 0 C17.16 0 34.32 0 52 0 C52 16.83 52 33.66 52 51 C34.84 51 17.68 51 0 51 C0 34.17 0 17.34 0 0 Z M1 1 C1 16.84 1 32.68 1 49 C17.17 49 33.34 49 50 49 C50 33.16 50 17.32 50 1 C33.83 1 17.66 1 1 1 Z " fill="#2A4B80" transform="translate(38,16)"/>
<path d="M0 0 C17.16 0 34.32 0 52 0 C52 17.16 52 34.32 52 52 C34.84 52 17.68 52 0 52 C0 34.84 0 17.68 0 0 Z M1 1 C1 17.5 1 34 1 51 C8.899375 51.020625 16.79875 51.04125 24.9375 51.0625 C27.4343335 51.071604 29.93116699 51.08070801 32.50366211 51.09008789 C34.46988877 51.0930069 36.43611604 51.09555549 38.40234375 51.09765625 C39.43363403 51.10277222 40.46492432 51.10788818 41.52746582 51.11315918 C42.98908142 51.11334045 42.98908142 51.11334045 44.48022461 51.11352539 C45.33071884 51.115746 46.18121307 51.11796661 47.05747986 51.12025452 C49.00588545 51.21480284 49.00588545 51.21480284 50 50 C50.09319449 48.4651703 50.117458 46.92607918 50.11352539 45.38842773 C50.11334412 43.89635803 50.11334412 43.89635803 50.11315918 42.37414551 C50.10804321 41.32126343 50.10292725 40.26838135 50.09765625 39.18359375 C50.09664917 38.22134888 50.09564209 37.259104 50.09460449 36.2677002 C50.0893546 32.65762142 50.07539348 29.04755957 50.0625 25.4375 C50.041875 17.373125 50.02125 9.30875 50 1 C33.83 1 17.66 1 1 1 Z " fill="#E5F8D0" transform="translate(38,272)"/>
<path d="M0 0 C1.3303125 0.495 1.3303125 0.495 2.6875 1 C5.70923347 1.91222143 7.88373706 2.18330958 11 2 C11 2.66 11 3.32 11 4 C12.98 4 14.96 4 17 4 C17.91892116 7.67568464 17.95904856 9.16380575 17 13 C13.04 13 9.08 13 5 13 C4.67 12.01 4.34 11.02 4 10 C3.34 10 2.68 10 2 10 C2 10.99 2 11.98 2 13 C1.34 12.67 0.68 12.34 0 12 C-0.99 12.495 -0.99 12.495 -2 13 C-3.67654729 12.72057545 -5.34608154 12.39171753 -7 12 C-7 9.69 -7 7.38 -7 5 C-5.68 4.34 -4.36 3.68 -3 3 C-3.33 2.34 -3.66 1.68 -4 1 C-2.68 1.33 -1.36 1.66 0 2 C0 1.34 0 0.68 0 0 Z " fill="#F7F7D1" transform="translate(161,83)"/>
<path d="M0 0 C1.32 0.33 2.64 0.66 4 1 C4 1.66 4 2.32 4 3 C4.99 3.66 5.98 4.32 7 5 C6.125 9.875 6.125 9.875 5 11 C5.66 11.66 6.32 12.32 7 13 C-0.67386422 14.40948526 -8.27965117 13.87620605 -16 13 C-17 12 -17 12 -17.0625 8.4375 C-17.041875 7.303125 -17.02125 6.16875 -17 5 C-15.35 4.67 -13.7 4.34 -12 4 C-12.33 3.34 -12.66 2.68 -13 2 C-7.06 2.99 -7.06 2.99 -1 4 C-0.67 2.68 -0.34 1.36 0 0 Z " fill="#9CB586" transform="translate(223,289)"/>
<path d="M0 0 C0.66 0 1.32 0 2 0 C2 9.24 2 18.48 2 28 C4.64 28 7.28 28 10 28 C10 28.66 10 29.32 10 30 C7.36 30 4.72 30 2 30 C2 49.8 2 69.6 2 90 C4.64 90 7.28 90 10 90 C10 90.66 10 91.32 10 92 C7.03 92 4.06 92 1 92 C-0.36216584 89.27566832 -0.15489787 87.08711848 -0.18945312 84.03735352 C-0.20617065 82.78588028 -0.22288818 81.53440704 -0.2401123 80.24501038 C-0.24679428 79.57441149 -0.25347626 78.9038126 -0.26036072 78.21289253 C-0.28138219 76.11571848 -0.30840601 74.01869868 -0.33703613 71.9216156 C-0.39674873 67.4686363 -0.44888803 63.01558522 -0.5 58.5625 C-0.55923277 53.40633559 -0.62155032 48.25024713 -0.69187927 43.09422112 C-0.71844691 41.02748424 -0.73926676 38.9607397 -0.7598877 36.89393616 C-0.77660522 35.63931076 -0.79332275 34.38468536 -0.81054688 33.09204102 C-0.82307495 31.98554703 -0.83560303 30.87905304 -0.84851074 29.73902893 C-0.88452509 26.90749835 -0.88452509 26.90749835 -2 24 C-1.34 24 -0.68 24 0 24 C-0.08378906 23.27296875 -0.16757812 22.5459375 -0.25390625 21.796875 C-1.00538099 14.37725096 -0.85323367 7.40344288 0 0 Z " fill="#325A85" transform="translate(379,48)"/>
<path d="M0 0 C6.13680387 2.15617433 6.13680387 2.15617433 8 5 C8.1875 8.6875 8.1875 8.6875 8 12 C7.360625 12.28875 6.72125 12.5775 6.0625 12.875 C3.84793921 13.82823451 3.84793921 13.82823451 3 16 C3 15.34 3 14.68 3 14 C1.8553125 14.2784375 1.8553125 14.2784375 0.6875 14.5625 C-3.161643 15.18910467 -5.65017815 13.73266647 -9 12 C-9 9.69 -9 7.38 -9 5 C-8.195625 4.87625 -7.39125 4.7525 -6.5625 4.625 C-5.716875 4.41875 -4.87125 4.2125 -4 4 C-3.67 3.34 -3.34 2.68 -3 2 C-2.34 2.33 -1.68 2.66 -1 3 C-0.67 2.01 -0.34 1.02 0 0 Z " fill="#F6F8CE" transform="translate(163,32)"/>
<path d="M0 0 C0.66 0 1.32 0 2 0 C2.99 0 3.98 0 5 0 C5.99 1.98 6.98 3.96 8 6 C8.33 4.02 8.66 2.04 9 0 C9.66 0 10.32 0 11 0 C11 3.96 11 7.92 11 12 C10.01 12 9.02 12 8 12 C7.01 10.02 6.02 8.04 5 6 C4.67 7.98 4.34 9.96 4 12 C2.68 12 1.36 12 0 12 C-1.794375 12.0928125 -1.794375 12.0928125 -3.625 12.1875 C-4.73875 12.125625 -5.8525 12.06375 -7 12 C-9.31282587 8.53076119 -9.42478586 7.07794425 -9 3 C-6.76522431 -0.72462614 -4.04026872 -0.25788949 0 0 Z " fill="#F3F3F3" transform="translate(114,337)"/>
<path d="M0 0 C2.46882098 3.70323147 2.17785072 5.54033044 2.0625 9.9375 C1.85244324 14.45573022 1.85244324 14.45573022 2.49362183 18.88768005 C3.08788342 21.36659935 3.12713963 23.59543747 3.12939453 26.14477539 C3.13254669 27.17006851 3.13569885 28.19536163 3.13894653 29.25172424 C3.1369223 30.35588181 3.13489807 31.46003937 3.1328125 32.59765625 C3.13376923 33.74229843 3.13472595 34.88694061 3.13571167 36.06626892 C3.13639234 38.49136408 3.13454592 40.91646107 3.13037109 43.34155273 C3.12505562 47.0239684 3.13030211 50.70626018 3.13671875 54.38867188 C3.13605728 56.75000027 3.13477469 59.11132858 3.1328125 61.47265625 C3.13483673 62.5626442 3.13686096 63.65263214 3.13894653 64.77565002 C3.09468469 79.48238931 3.09468469 79.48238931 2 85 C1.01 85.495 1.01 85.495 0 86 C0 57.62 0 29.24 0 0 Z " fill="#F0F8D9" transform="translate(365,235)"/>
<path d="M0 0 C1.6876286 0 3.37522274 -0.02806577 5.0625 -0.0625 C8 0 8 0 9 1 C9.04063832 2.66617115 9.042721 4.33388095 9 6 C7.35 6.33 5.7 6.66 4 7 C4 8.65 4 10.3 4 12 C0.18792739 12 -3.25801961 11.70603404 -7 11 C-8.52150158 7.95699684 -8.23899393 5.345915 -8 2 C-4.73688263 -0.17541158 -3.75374806 -0.1924999 0 0 Z " fill="#F5F5F5" transform="translate(166,337)"/>
<path d="M0 0 C1.2065625 0.0309375 1.2065625 0.0309375 2.4375 0.0625 C2.7675 1.7125 3.0975 3.3625 3.4375 5.0625 C5.0875 5.0625 6.7375 5.0625 8.4375 5.0625 C8.4375 6.3825 8.4375 7.7025 8.4375 9.0625 C8.499375 10.09375 8.56125 11.125 8.625 12.1875 C8.563125 13.13625 8.50125 14.085 8.4375 15.0625 C4.75753497 17.51581002 2.78336828 17.45757893 -1.5625 17.0625 C-3.73791158 13.79938263 -3.7549999 12.81624806 -3.5625 9.0625 C-3.5625 7.3748714 -3.59056577 5.68727726 -3.625 4 C-3.54173157 0.0863837 -3.54173157 0.0863837 0 0 Z " fill="#F9F9F9" transform="translate(13.5625,136.9375)"/>
<path d="M0 0 C0.86825912 0.00222061 1.73651825 0.00444122 2.63108826 0.00672913 C3.61202957 0.00680466 4.59297089 0.00688019 5.6036377 0.00695801 C6.6702916 0.01211929 7.7369455 0.01728058 8.83592224 0.02259827 C9.92211349 0.02401321 11.00830475 0.02542816 12.12741089 0.02688599 C15.61230674 0.03250403 19.09713941 0.04505959 22.58201599 0.05775452 C24.93813486 0.06276719 27.29425473 0.0673305 29.65037537 0.07142639 C35.44011063 0.08247933 41.2298088 0.09923501 47.01951599 0.12025452 C47.01951599 0.78025452 47.01951599 1.44025452 47.01951599 2.12025452 C31.17951599 2.45025452 15.33951599 2.78025452 -0.98048401 3.12025452 C-1.31048401 18.63025452 -1.64048401 34.14025452 -1.98048401 50.12025452 C-2.31048401 50.12025452 -2.64048401 50.12025452 -2.98048401 50.12025452 C-3.00575239 43.16022005 -3.02331623 36.20019732 -3.03541565 29.24012756 C-3.04045742 26.8703314 -3.04729066 24.50053837 -3.05592346 22.13075256 C-3.06799591 18.73271413 -3.07371372 15.33471666 -3.07814026 11.93666077 C-3.08330154 10.87000687 -3.08846283 9.80335297 -3.09378052 8.70437622 C-3.09385605 7.72343491 -3.09393158 6.74249359 -3.0940094 5.73182678 C-3.09623001 4.86356766 -3.09845062 3.99530853 -3.10073853 3.10073853 C-2.93754904 0.41315407 -2.68758446 0.16318949 0 0 Z " fill="#9BDBCA" transform="translate(92.98048400878906,117.87974548339844)"/>
<path d="M0 0 C2.97 0.33 5.94 0.66 9 1 C9 1.66 9 2.32 9 3 C10.32 3 11.64 3 13 3 C13 5.64 13 8.28 13 11 C13.66 11.33 14.32 11.66 15 12 C12.36 12.33 9.72 12.66 7 13 C6.67 12.01 6.34 11.02 6 10 C5.01 10.66 4.02 11.32 3 12 C0.3125 11.625 0.3125 11.625 -2 11 C-2.17700355 6.39790775 -2.10814567 4.21629134 0 0 Z " fill="#C9D299" transform="translate(311,290)"/>
<path d="M0 0 C0.33 0.66 0.66 1.32 1 2 C1.66 2 2.32 2 3 2 C4.49106457 4.98212913 4.11941467 7.71609658 4 11 C3.67 11.33 3.34 11.66 3 12 C0.83067876 11.9358534 -1.33671723 11.79900318 -3.5 11.625 C-4.6859375 11.53476563 -5.871875 11.44453125 -7.09375 11.3515625 C-10 11 -10 11 -11 10 C-11.07179964 8.48071962 -11.08392007 6.95832518 -11.0625 5.4375 C-11.05347656 4.61121094 -11.04445313 3.78492187 -11.03515625 2.93359375 C-11.02355469 2.29550781 -11.01195313 1.65742187 -11 1 C-8.02148438 1.04882812 -8.02148438 1.04882812 -5.04296875 1.09765625 C-2.79694539 1.08263217 -2.79694539 1.08263217 0 0 Z " fill="#3382AB" transform="translate(125,85)"/>
<path d="M0 0 C0.66 0 1.32 0 2 0 C2 0.99 2 1.98 2 3 C2.99 3 3.98 3 5 3 C5 5.64 5 8.28 5 11 C5.66 11.33 6.32 11.66 7 12 C1.57360214 13.28519949 -3.54524842 12.92453417 -9 12 C-10 11 -10 11 -10.0625 7.4375 C-10.041875 6.303125 -10.02125 5.16875 -10 4 C-7.23735711 3.40267181 -4.83967231 3 -2 3 C-1.34 2.01 -0.68 1.02 0 0 Z " fill="#C3CC94" transform="translate(62,290)"/>
<path d="M0 0 C1.4540625 0.0309375 1.4540625 0.0309375 2.9375 0.0625 C2.96439216 1.54156892 2.98384621 3.02077483 3 4.5 C3.01160156 5.32371094 3.02320313 6.14742188 3.03515625 6.99609375 C2.9375 9.0625 2.9375 9.0625 1.9375 10.0625 C-0.24269479 10.45916227 -2.4321463 10.80565237 -4.625 11.125 C-5.82253906 11.30160156 -7.02007812 11.47820312 -8.25390625 11.66015625 C-9.18074219 11.79292969 -10.10757813 11.92570312 -11.0625 12.0625 C-11.0625 11.0725 -11.0625 10.0825 -11.0625 9.0625 C-10.0725 8.7325 -9.0825 8.4025 -8.0625 8.0625 C-8.0625 7.4025 -8.0625 6.7425 -8.0625 6.0625 C-9.0525 5.7325 -10.0425 5.4025 -11.0625 5.0625 C-11.0625 3.7425 -11.0625 2.4225 -11.0625 1.0625 C-9.928125 1.083125 -8.79375 1.10375 -7.625 1.125 C-3.70384291 1.05620777 -3.73763955 0.07627836 0 0 Z " fill="#439FB3" transform="translate(125.0625,291.9375)"/>
<path d="M0 0 C2.00720923 0.28674418 4.0085944 0.61866701 6 1 C6 3.64 6 6.28 6 9 C6.66 9.33 7.32 9.66 8 10 C5.69 10 3.38 10 1 10 C0.67 10.66 0.34 11.32 0 12 C-2.31 11.34 -4.62 10.68 -7 10 C-7 10.66 -7 11.32 -7 12 C-8.32 12 -9.64 12 -11 12 C-11 11.01 -11 10.02 -11 9 C-8.69 8.34 -6.38 7.68 -4 7 C-4 6.01 -4 5.02 -4 4 C-3.34 4 -2.68 4 -2 4 C-2 3.34 -2 2.68 -2 2 C-3.32 1.67 -4.64 1.34 -6 1 C-4.7934375 1.0309375 -4.7934375 1.0309375 -3.5625 1.0625 C-1.06645115 1.29633621 -1.06645115 1.29633621 0 0 Z " fill="#A8D5B7" transform="translate(172,138)"/>
<path d="M0 0 C0.33 0 0.66 0 1 0 C0.99476318 1.23975586 0.98952637 2.47951172 0.98413086 3.75683594 C0.96586832 8.4086839 0.95449121 13.06052878 0.94506836 17.71240234 C0.9400763 19.71598852 0.93328032 21.71957112 0.92456055 23.72314453 C0.79701435 38.20986417 0.79701435 38.20986417 1.875 52.64453125 C2.08798782 56.65802053 1.08944701 60.15489289 0 64 C-0.33 64 -0.66 64 -1 64 C-1.02542332 56.17123104 -1.0428977 48.34247279 -1.05493164 40.51367188 C-1.05938363 37.85219379 -1.06676643 35.19076987 -1.07543945 32.52929688 C-1.08761354 28.69660768 -1.09325318 24.86395505 -1.09765625 21.03125 C-1.10281754 19.84760864 -1.10797882 18.66396729 -1.11329651 17.44445801 C-1.11369517 11.53007104 -0.90654741 5.84707394 0 0 Z " fill="#2C528E" transform="translate(367,64)"/>
<path d="M0 0 C17.16 0 34.32 0 52 0 C51.67 0.99 51.34 1.98 51 3 C26.25 2.505 26.25 2.505 1 2 C0.67 1.34 0.34 0.68 0 0 Z " fill="#F7FDF1" transform="translate(192,221)"/>
<path d="M0 0 C3.25696479 0.41755959 4.63443291 0.63443291 7 3 C8.32 3 9.64 3 11 3 C11 2.34 11 1.68 11 1 C9.68 0.67 8.36 0.34 7 0 C8.65 0 10.3 0 12 0 C12.85856655 3.4342662 12.97591583 5.61682513 12 9 C10.02090602 9.02686553 8.04171029 9.04633375 6.0625 9.0625 C4.96035156 9.07410156 3.85820312 9.08570312 2.72265625 9.09765625 C0 9 0 9 -1 8 C-1.125 4.5 -1.125 4.5 -1 1 C-0.67 0.67 -0.34 0.34 0 0 Z " fill="#AFAF8D" transform="translate(166,87)"/>
<path d="M0 0 C16.5 0 33 0 50 0 C50 0.33 50 0.66 50 1 C49.41340103 1.01030746 48.82680206 1.02061493 48.22242737 1.03123474 C42.1396213 1.13907194 36.05697026 1.25368756 29.97436523 1.37231445 C27.70161164 1.41573665 25.42882387 1.45740616 23.15600586 1.49731445 C19.89686768 1.55484119 16.63790269 1.61858552 13.37890625 1.68359375 C12.35599991 1.70030624 11.33309357 1.71701874 10.27919006 1.73423767 C9.33829025 1.75418289 8.39739044 1.77412811 7.42797852 1.79467773 C6.59524918 1.81022202 5.76251984 1.8257663 4.90455627 1.84178162 C2.99033415 1.79428614 2.99033415 1.79428614 2 3 C1.87778475 4.44184293 1.82227242 5.88943144 1.79467773 7.33618164 C1.77473251 8.2570607 1.75478729 9.17793976 1.73423767 10.12672424 C1.71752518 11.12775681 1.70081268 12.12878937 1.68359375 13.16015625 C1.66281265 14.17975937 1.64203156 15.19936249 1.62062073 16.24986267 C1.55501148 19.52067048 1.49618766 22.79156137 1.4375 26.0625 C1.39432558 28.27409728 1.35071166 30.48568603 1.30664062 32.69726562 C1.1993186 38.13142151 1.09757377 43.56566082 1 49 C0.67 49 0.34 49 0 49 C0 32.83 0 16.66 0 0 Z " fill="#0C1B46" transform="translate(38,222)"/>
<path d="M0 0 C0.99 0.33 1.98 0.66 3 1 C2.34 1 1.68 1 1 1 C1.33 2.65 1.66 4.3 2 6 C2.99 6.33 3.98 6.66 5 7 C4.67 22.84 4.34 38.68 4 55 C2 53 2 53 1.75276184 51.19192505 C1.75489937 50.09749588 1.75489937 50.09749588 1.75708008 48.98095703 C1.75400345 48.15314728 1.75092682 47.32533752 1.74775696 46.47244263 C1.75494247 45.57661469 1.76212799 44.68078674 1.76953125 43.7578125 C1.76998947 42.8378952 1.77044769 41.91797791 1.7709198 40.97018433 C1.77394434 39.0216137 1.78183665 37.07304554 1.79418945 35.12451172 C1.81238329 32.14411834 1.81469956 29.16403673 1.81445312 26.18359375 C1.81937079 24.29166398 1.82520019 22.39973632 1.83203125 20.5078125 C1.83314407 19.61603302 1.8342569 18.72425354 1.83540344 17.80545044 C1.84178329 16.97133636 1.84816315 16.13722229 1.85473633 15.27783203 C1.85854813 14.5466214 1.86235992 13.81541077 1.86628723 13.06204224 C2.00416592 10.93575556 2.42018244 9.04638311 3 7 C2.01 7 1.02 7 0 7 C-1.125 2.25 -1.125 2.25 0 0 Z " fill="#F0F6CB" transform="translate(377,257)"/>
<path d="M0 0 C0.78375 0.165 1.5675 0.33 2.375 0.5 C5.9124162 1.17379356 8.49561161 0.73776598 12 0 C12.84454356 3.37817425 13.10844919 5.67465243 12 9 C9.03 8.505 9.03 8.505 6 8 C6 8.99 6 9.98 6 11 C2.37 10.34 -1.26 9.68 -5 9 C-1 7 -1 7 1.25 7.375 C1.8275 7.58125 2.405 7.7875 3 8 C3 6.68 3 5.36 3 4 C2.01 3.67 1.02 3.34 0 3 C0.99 3 1.98 3 3 3 C3 2.34 3 1.68 3 1 C2.01 0.67 1.02 0.34 0 0 Z " fill="#528C81" transform="translate(64,139)"/>
<path d="M0 0 C0.33 0 0.66 0 1 0 C1.33 16.17 1.66 32.34 2 49 C4.31 49.33 6.62 49.66 9 50 C9 50.66 9 51.32 9 52 C5.7 52 2.4 52 -1 52 C-2.125 47.25 -2.125 47.25 -1 45 C-0.94068775 41.48574931 -0.9787965 37.98616428 -1.0390625 34.47265625 C-1.08393106 30.18770848 -0.86077918 26.22319787 0 22 C-0.66 21.67 -1.32 21.34 -2 21 C-1.93941406 20.40574219 -1.87882812 19.81148437 -1.81640625 19.19921875 C-1.16982122 12.80300071 -0.57215654 6.40328386 0 0 Z " fill="#A8C1A9" transform="translate(380,211)"/>
<path d="M0 0 C1.7015625 0.2784375 1.7015625 0.2784375 3.4375 0.5625 C4.613125 0.706875 5.78875 0.85125 7 1 C7.33 0.67 7.66 0.34 8 0 C9.32 0 10.64 0 12 0 C12 2.64 12 5.28 12 8 C12.66 8.33 13.32 8.66 14 9 C9.8794254 10.99785435 6.54805635 11.17835515 2 11 C2 10.34 2 9.68 2 9 C1.34 8.67 0.68 8.34 0 8 C1.32 8 2.64 8 4 8 C4 6.68 4 5.36 4 4 C3.34 3.67 2.68 3.34 2 3 C2.66 3 3.32 3 4 3 C4 2.34 4 1.68 4 1 C2.68 0.67 1.36 0.34 0 0 Z " fill="#7FA98C" transform="translate(114,139)"/>
<path d="M0 0 C1.98 0 3.96 0 6 0 C8.46449704 7.53846154 8.46449704 7.53846154 7 11 C6.67 11.33 6.34 11.66 6 12 C4.02 12 2.04 12 0 12 C0 8.04 0 4.08 0 0 Z " fill="#3C3C3C" transform="translate(219,337)"/>
<path d="M0 0 C2.0625 0.4375 2.0625 0.4375 4 1 C4 1.66 4 2.32 4 3 C4.99 3.66 5.98 4.32 7 5 C6.125 9.875 6.125 9.875 5 11 C5.66 11.66 6.32 12.32 7 13 C4.36 13.33 1.72 13.66 -1 14 C-1 13.34 -1 12.68 -1 12 C-1.99 11.67 -2.98 11.34 -4 11 C-3.505 10.649375 -3.01 10.29875 -2.5 9.9375 C-0.2792173 7.06898901 -0.86945763 4.52464392 -1 1 C-0.67 0.67 -0.34 0.34 0 0 Z " fill="#CCE5B3" transform="translate(223,289)"/>
<path d="M0 0 C1 1 1 1 1 7 C-2.96 7 -6.92 7 -11 7 C-11 5.02 -11 3.04 -11 1 C-9.824375 0.7834375 -9.824375 0.7834375 -8.625 0.5625 C-2.39484979 -0.77253219 -2.39484979 -0.77253219 0 0 Z " fill="#3B3B3B" transform="translate(20,189)"/>
<path d="M0 0 C2.5625 0.25 2.5625 0.25 5 1 C6.38550197 3.77100394 6.1877467 5.9334706 6 9 C5.01 10.485 5.01 10.485 4 12 C-0.875 11.125 -0.875 11.125 -2 10 C-2.27314815 4.26388889 -2.27314815 4.26388889 -2 2 C-1.34 1.34 -0.68 0.68 0 0 Z " fill="#626262" transform="translate(397,195)"/>
<path d="M0 0 C2.5625 0.25 2.5625 0.25 5 1 C6.38550197 3.77100394 6.1877467 5.9334706 6 9 C5.01 10.485 5.01 10.485 4 12 C-0.875 11.125 -0.875 11.125 -2 10 C-2.27314815 4.26388889 -2.27314815 4.26388889 -2 2 C-1.34 1.34 -0.68 0.68 0 0 Z " fill="#626262" transform="translate(397,133)"/>
<path d="M0 0 C2.5625 0.25 2.5625 0.25 5 1 C6.38550197 3.77100394 6.1877467 5.9334706 6 9 C5.01 10.485 5.01 10.485 4 12 C-0.875 11.125 -0.875 11.125 -2 10 C-2.27314815 4.26388889 -2.27314815 4.26388889 -2 2 C-1.34 1.34 -0.68 0.68 0 0 Z " fill="#5C5C5C" transform="translate(397,318)"/>
<path d="M0 0 C2.625 0.375 2.625 0.375 5 1 C6.23076923 7.4 6.23076923 7.4 5.0625 10.4375 C4.711875 10.953125 4.36125 11.46875 4 12 C-0.875 11.125 -0.875 11.125 -2 10 C-2.27314815 4.26388889 -2.27314815 4.26388889 -2 2 C-1.34 1.34 -0.68 0.68 0 0 Z " fill="#5A5A5A" transform="translate(397,256)"/>
<path d="M0 0 C2.625 0.375 2.625 0.375 5 1 C6.23076923 7.4 6.23076923 7.4 5.0625 10.4375 C4.711875 10.953125 4.36125 11.46875 4 12 C-0.875 11.125 -0.875 11.125 -2 10 C-2.27314815 4.26388889 -2.27314815 4.26388889 -2 2 C-1.34 1.34 -0.68 0.68 0 0 Z " fill="#5A5A5A" transform="translate(397,72)"/>
<path d="M0 0 C4.70588235 0.70588235 4.70588235 0.70588235 6 2 C6.27314815 7.73611111 6.27314815 7.73611111 6 10 C5.34 10.66 4.68 11.32 4 12 C1.375 11.625 1.375 11.625 -1 11 C-1.02688151 9.35425434 -1.04634123 7.70838587 -1.0625 6.0625 C-1.07410156 5.14597656 -1.08570313 4.22945313 -1.09765625 3.28515625 C-1 1 -1 1 0 0 Z " fill="#5C5C5C" transform="translate(411,318)"/>
<path d="M0 0 C4.70588235 0.70588235 4.70588235 0.70588235 6 2 C6.27314815 7.73611111 6.27314815 7.73611111 6 10 C5.34 10.66 4.68 11.32 4 12 C1.375 11.625 1.375 11.625 -1 11 C-1.02688151 9.35425434 -1.04634123 7.70838587 -1.0625 6.0625 C-1.07410156 5.14597656 -1.08570313 4.22945312 -1.09765625 3.28515625 C-1 1 -1 1 0 0 Z " fill="#4C4C4C" transform="translate(411,10)"/>
<path d="M0 0 C1.67542976 0.28604898 3.34385343 0.61781233 5 1 C6.16461426 4.49384279 6.13568319 7.33655389 6 11 C5 12 5 12 2.5 12.125 C0 12 0 12 -1 11 C-1.09823937 9.33570949 -1.12973631 7.66718069 -1.125 6 C-1.12757813 5.0925 -1.13015625 4.185 -1.1328125 3.25 C-1 1 -1 1 0 0 Z " fill="#7D7D7D" transform="translate(411,72)"/>
<path d="M0 0 C0.99 0 1.98 0 3 0 C3 2.64 3 5.28 3 8 C5.0995533 6.84315671 5.0995533 6.84315671 7 5 C7.33425735 2.37374861 7.33425735 2.37374861 7 0 C8.65 0 10.3 0 12 0 C11.01 0.33 10.02 0.66 9 1 C9 1.66 9 2.32 9 3 C10.32 3.66 11.64 4.32 13 5 C12.67 6.32 12.34 7.64 12 9 C7.34462607 9.83796731 3.62921525 10.0161692 -1 9 C-0.34 8.67 0.32 8.34 1 8 C0.67 5.36 0.34 2.72 0 0 Z " fill="#7F8B5A" transform="translate(115,36)"/>
<path d="M0 0 C0.99 0 1.98 0 3 0 C3.99 1.98 4.98 3.96 6 6 C6.33 4.02 6.66 2.04 7 0 C7.66 0 8.32 0 9 0 C9 3.96 9 7.92 9 12 C8.01 12 7.02 12 6 12 C5.01 10.02 4.02 8.04 3 6 C2.67 7.98 2.34 9.96 2 12 C1.34 12 0.68 12 0 12 C0 8.04 0 4.08 0 0 Z " fill="#5E5E5E" transform="translate(116,337)"/>
<path d="M0 0 C0.99 0 1.98 0 3 0 C3.99 1.98 4.98 3.96 6 6 C6.33 4.02 6.66 2.04 7 0 C7.66 0 8.32 0 9 0 C9 3.96 9 7.92 9 12 C8.01 12 7.02 12 6 12 C5.01 10.02 4.02 8.04 3 6 C2.67 7.98 2.34 9.96 2 12 C1.34 12 0.68 12 0 12 C0 8.04 0 4.08 0 0 Z " fill="#5E5E5E" transform="translate(63,337)"/>
<path d="M0 0 C2.68512658 2.57206862 3.22569732 4.61815623 3.328125 8.203125 C3.31873698 9.88559202 3.29174891 11.56802484 3.25 13.25 C3.23904297 14.13010742 3.22808594 15.01021484 3.21679688 15.91699219 C3.08334359 23.96190458 2.62731105 31.97938018 2 40 C1.67 40 1.34 40 1 40 C1 29.44 1 18.88 1 8 C0.01 7.67 -0.98 7.34 -2 7 C-1.34 7 -0.68 7 0 7 C0 4.69 0 2.38 0 0 Z " fill="#4BA1B1" transform="translate(378,136)"/>
<path d="M0 0 C3.96 0 7.92 0 12 0 C12 0.99 12 1.98 12 3 C10.02 3.99 8.04 4.98 6 6 C8.97 6.495 8.97 6.495 12 7 C12 7.66 12 8.32 12 9 C8.04 9 4.08 9 0 9 C0 8.01 0 7.02 0 6 C1.98 5.01 3.96 4.02 6 3 C3.03 2.505 3.03 2.505 0 2 C0 1.34 0 0.68 0 0 Z " fill="#5E5E5E" transform="translate(10,85)"/>
<path d="M0 0 C3.96 0 7.92 0 12 0 C12 0.99 12 1.98 12 3 C10.02 3.99 8.04 4.98 6 6 C8.97 6.495 8.97 6.495 12 7 C12 7.66 12 8.32 12 9 C8.04 9 4.08 9 0 9 C0 8.01 0 7.02 0 6 C1.98 5.01 3.96 4.02 6 3 C3.03 2.505 3.03 2.505 0 2 C0 1.34 0 0.68 0 0 Z " fill="#5E5E5E" transform="translate(11,36)"/>
<path d="M0 0 C2.125 0.375 2.125 0.375 4 1 C3.01 1.33 2.02 1.66 1 2 C0.67 2.66 0.34 3.32 0 4 C1.65 4.33 3.3 4.66 5 5 C5.04254356 6.99954746 5.04080783 9.00041636 5 11 C4 12 4 12 1.4375 12.0625 C0.633125 12.041875 -0.17125 12.02125 -1 12 C-2.11445498 9.77109005 -2.16480286 8.46944894 -2.1875 6 C-2.20167969 5.29875 -2.21585937 4.5975 -2.23046875 3.875 C-2 2 -2 2 0 0 Z " fill="#828282" transform="translate(412,133)"/>
<path d="M0 0 C1.99961564 0.03920815 4.00049364 0.04443347 6 0 C6 0.33 6 0.66 6 1 C4.35 1 2.7 1 1 1 C1 2.32 1 3.64 1 5 C2.32 5.33 3.64 5.66 5 6 C4.67 6.99 4.34 7.98 4 9 C1.69 8.67 -0.62 8.34 -3 8 C-3.433125 6.576875 -3.433125 6.576875 -3.875 5.125 C-4.76825109 1.94788422 -4.76825109 1.94788422 -7 0 C-3.98968256 -0.93423645 -3.13349732 -1.04449911 0 0 Z " fill="#3B9FB8" transform="translate(113,292)"/>
<path d="M0 0 C0.66 0 1.32 0 2 0 C2 2.64 2 5.28 2 8 C4.64 8 7.28 8 10 8 C10 8.66 10 9.32 10 10 C7.36 10 4.72 10 2 10 C2.02320313 10.62648437 2.04640625 11.25296875 2.0703125 11.8984375 C2.08835937 12.71570313 2.10640625 13.53296875 2.125 14.375 C2.14820313 15.18710938 2.17140625 15.99921875 2.1953125 16.8359375 C2 19 2 19 0 21 C-1.51610156 16.45169531 -0.82605376 12.0314672 -0.5 7.3125 C-0.45230469 6.61060547 -0.40460938 5.90871094 -0.35546875 5.18554688 C-0.23787848 3.45696984 -0.11905865 1.72847652 0 0 Z " fill="#71A09A" transform="translate(379,192)"/>
<path d="M0 0 C0.99 0 1.98 0 3 0 C3.50559908 1.43554025 4.0042749 2.8735202 4.5 4.3125 C4.7784375 5.11300781 5.056875 5.91351563 5.34375 6.73828125 C6 9 6 9 6 12 C5.34 12 4.68 12 4 12 C4 11.01 4 10.02 4 9 C1.52733235 9.34444881 1.52733235 9.34444881 -1 10 C-1.33 10.66 -1.66 11.32 -2 12 C-2.66 12 -3.32 12 -4 12 C-3.52309796 10.37433394 -3.04340334 8.74948689 -2.5625 7.125 C-2.29566406 6.22007812 -2.02882812 5.31515625 -1.75390625 4.3828125 C-1 2 -1 2 0 0 Z " fill="#7D7D7D" transform="translate(212,337)"/>
<path d="M0 0 C1.98 0.495 1.98 0.495 4 1 C4 2.98 4 4.96 4 7 C4.66 7 5.32 7 6 7 C6 4.69 6 2.38 6 0 C6.66 0.33 7.32 0.66 8 1 C8 2.32 8 3.64 8 5 C8.66 5.33 9.32 5.66 10 6 C10 6.99 10 7.98 10 9 C7.69 9.66 5.38 10.32 3 11 C3 10.34 3 9.68 3 9 C1.68 9.33 0.36 9.66 -1 10 C-1.125 3.375 -1.125 3.375 0 0 Z " fill="#29498D" transform="translate(69,37)"/>
<path d="M0 0 C1.98 0 3.96 0 6 0 C7 1 7 1 7.0625 3.5625 C7.041875 4.366875 7.02125 5.17125 7 6 C5.35 6.33 3.7 6.66 2 7 C2 8.65 2 10.3 2 12 C1.34 12 0.68 12 0 12 C0 8.04 0 4.08 0 0 Z " fill="#7B7B7B" transform="translate(168,337)"/>
<path d="M0 0 C1.2065625 0.0309375 1.2065625 0.0309375 2.4375 0.0625 C2.7675 1.7125 3.0975 3.3625 3.4375 5.0625 C5.0875 5.0625 6.7375 5.0625 8.4375 5.0625 C8.4375 5.7225 8.4375 6.3825 8.4375 7.0625 C4.4775 7.0625 0.5175 7.0625 -3.5625 7.0625 C-3.5625 0.08689024 -3.5625 0.08689024 0 0 Z " fill="#7C7C7C" transform="translate(13.5625,136.9375)"/>
<path d="M0 0 C1.66611905 -0.042721 3.33382885 -0.04063832 5 0 C6 1 6 1 6.25 4.4375 C6.1675 5.613125 6.085 6.78875 6 8 C2.53001271 10.31332486 1.07490752 10.33957563 -3 10 C-3.99 9.34 -4.98 8.68 -6 8 C-6.1875 4.375 -6.1875 4.375 -6 1 C-5.34 1 -4.68 1 -4 1 C-3.67 2.98 -3.34 4.96 -3 7 C-1.02 7 0.96 7 3 7 C3.33 5.35 3.66 3.7 4 2 C3.01 2 2.02 2 1 2 C0.67 2.66 0.34 3.32 0 4 C0 2.68 0 1.36 0 0 Z " fill="#676767" transform="translate(16,95)"/>
<path d="M0 0 C0 0.66 0 1.32 0 2 C-0.99 2 -1.98 2 -3 2 C-2.65555119 4.47266765 -2.65555119 4.47266765 -2 7 C-1.34 7.33 -0.68 7.66 0 8 C0 8.66 0 9.32 0 10 C-1.62566606 9.52309796 -3.25051311 9.04340334 -4.875 8.5625 C-5.77992187 8.29566406 -6.68484375 8.02882812 -7.6171875 7.75390625 C-10 7 -10 7 -12 6 C-12 5.34 -12 4.68 -12 4 C-10.3767313 3.3291288 -8.75132422 2.66342971 -7.125 2 C-6.22007813 1.62875 -5.31515625 1.2575 -4.3828125 0.875 C-2 0 -2 0 0 0 Z " fill="#6A6A6A" transform="translate(21,197)"/>
<path d="M0 0 C0 0.66 0 1.32 0 2 C-1.2065625 1.9690625 -1.2065625 1.9690625 -2.4375 1.9375 C-4.93354885 1.70366379 -4.93354885 1.70366379 -6 3 C-6.04080783 4.99958364 -6.04254356 7.00045254 -6 9 C-4.35 9.33 -2.7 9.66 -1 10 C-1 9.01 -1 8.02 -1 7 C-1.66 6.67 -2.32 6.34 -3 6 C-1.68 6 -0.36 6 1 6 C1.042721 7.66611905 1.04063832 9.33382885 1 11 C0 12 0 12 -3.4375 12.25 C-4.613125 12.1675 -5.78875 12.085 -7 12 C-9.31282587 8.53076119 -9.42478586 7.07794425 -9 3 C-6.77089201 -0.71517998 -4.03410755 -0.2689405 0 0 Z " fill="#575757" transform="translate(114,337)"/>
<path d="M0 0 C0.99 0 1.98 0 3 0 C3.19573608 1.43640171 3.38127816 2.87419504 3.5625 4.3125 C3.66691406 5.11300781 3.77132813 5.91351563 3.87890625 6.73828125 C4 9 4 9 3 12 C2.34 12 1.68 12 1 12 C1 11.01 1 10.02 1 9 C-0.65 9 -2.3 9 -4 9 C-2.94124926 5.59687262 -1.99097846 2.98646769 0 0 Z " fill="#4F4F4F" transform="translate(413,195)"/>
<path d="M0 0 C1.67542976 0.28604898 3.34385343 0.61781233 5 1 C5 3.31 5 5.62 5 8 C3.34385343 8.38218767 1.67542976 8.71395102 0 9 C-1 8 -1 8 -1.125 4.5 C-1 1 -1 1 0 0 Z " fill="#525A29" transform="translate(53,293)"/>
<path d="M0 0 C1.67542976 0.28604898 3.34385343 0.61781233 5 1 C5 3.31 5 5.62 5 8 C3.34385343 8.38218767 1.67542976 8.71395102 0 9 C-1 8 -1 8 -1.125 4.5 C-1 1 -1 1 0 0 Z " fill="#455C32" transform="translate(207,293)"/>
<path d="M0 0 C1.67542976 0.28604898 3.34385343 0.61781233 5 1 C5 3.31 5 5.62 5 8 C3.34385343 8.38218767 1.67542976 8.71395102 0 9 C-1 8 -1 8 -1.125 4.5 C-1 1 -1 1 0 0 Z " fill="#5A6230" transform="translate(310,293)"/>
<path d="M0 0 C1.67542976 0.28604898 3.34385343 0.61781233 5 1 C5 3.31 5 5.62 5 8 C3.34385343 8.38218767 1.67542976 8.71395102 0 9 C-1 8 -1 8 -1.125 4.5 C-1 1 -1 1 0 0 Z " fill="#59583A" transform="translate(268,293)"/>
<path d="M0 0 C1.67542976 0.28604898 3.34385343 0.61781233 5 1 C5 3.31 5 5.62 5 8 C3.34385343 8.38218767 1.67542976 8.71395102 0 9 C-1 8 -1 8 -1.125 4.5 C-1 1 -1 1 0 0 Z " fill="#555437" transform="translate(165,293)"/>
<path d="M0 0 C1.67542976 0.28604898 3.34385343 0.61781233 5 1 C5 3.31 5 5.62 5 8 C3.34385343 8.38218767 1.67542976 8.71395102 0 9 C-1 8 -1 8 -1.125 4.5 C-1 1 -1 1 0 0 Z " fill="#A0EDF8" transform="translate(104,293)"/>
<path d="M0 0 C1.67542976 0.28604898 3.34385343 0.61781233 5 1 C5 3.31 5 5.62 5 8 C3.34385343 8.38218767 1.67542976 8.71395102 0 9 C-1 8 -1 8 -1.125 4.5 C-1 1 -1 1 0 0 Z " fill="#5C5B3D" transform="translate(114,241)"/>
<path d="M0 0 C1.67542976 0.28604898 3.34385343 0.61781233 5 1 C5 3.31 5 5.62 5 8 C3.34385343 8.38218767 1.67542976 8.71395102 0 9 C-1 8 -1 8 -1.125 4.5 C-1 1 -1 1 0 0 Z " fill="#58573A" transform="translate(268,241)"/>
<path d="M0 0 C1.67542976 0.28604898 3.34385343 0.61781233 5 1 C5 3.31 5 5.62 5 8 C3.34385343 8.38218767 1.67542976 8.71395102 0 9 C-1 8 -1 8 -1.125 4.5 C-1 1 -1 1 0 0 Z " fill="#5A593C" transform="translate(217,241)"/>
<path d="M0 0 C1.67542976 0.28604898 3.34385343 0.61781233 5 1 C5 3.31 5 5.62 5 8 C3.34385343 8.38218767 1.67542976 8.71395102 0 9 C-1 8 -1 8 -1.125 4.5 C-1 1 -1 1 0 0 Z " fill="#5E5D3F" transform="translate(165,241)"/>
<path d="M0 0 C1.67542976 0.28604898 3.34385343 0.61781233 5 1 C5 3.31 5 5.62 5 8 C3.34385343 8.38218767 1.67542976 8.71395102 0 9 C-1 8 -1 8 -1.125 4.5 C-1 1 -1 1 0 0 Z " fill="#5B5A3B" transform="translate(319,190)"/>
<path d="M0 0 C1.67542976 0.28604898 3.34385343 0.61781233 5 1 C5 3.31 5 5.62 5 8 C3.34385343 8.38218767 1.67542976 8.71395102 0 9 C-1 8 -1 8 -1.125 4.5 C-1 1 -1 1 0 0 Z " fill="#58573A" transform="translate(268,190)"/>
<path d="M0 0 C1.67542976 0.28604898 3.34385343 0.61781233 5 1 C5 3.31 5 5.62 5 8 C3.34385343 8.38218767 1.67542976 8.71395102 0 9 C-1 8 -1 8 -1.125 4.5 C-1 1 -1 1 0 0 Z " fill="#5B5A3C" transform="translate(114,190)"/>
<path d="M0 0 C1.67542976 0.28604898 3.34385343 0.61781233 5 1 C5 3.31 5 5.62 5 8 C3.34385343 8.38218767 1.67542976 8.71395102 0 9 C-1 8 -1 8 -1.125 4.5 C-1 1 -1 1 0 0 Z " fill="#5B5A3B" transform="translate(63,190)"/>
<path d="M0 0 C1.67542976 0.28604898 3.34385343 0.61781233 5 1 C5 3.31 5 5.62 5 8 C3.34385343 8.38218767 1.67542976 8.71395102 0 9 C-1 8 -1 8 -1.125 4.5 C-1 1 -1 1 0 0 Z " fill="#5A593A" transform="translate(268,139)"/>
<path d="M0 0 C1.67542976 0.28604898 3.34385343 0.61781233 5 1 C5 3.31 5 5.62 5 8 C3.34385343 8.38218767 1.67542976 8.71395102 0 9 C-1 8 -1 8 -1.125 4.5 C-1 1 -1 1 0 0 Z " fill="#335C41" transform="translate(156,139)"/>
<path d="M0 0 C1.67542976 0.28604898 3.34385343 0.61781233 5 1 C5 3.31 5 5.62 5 8 C3.34385343 8.38218767 1.67542976 8.71395102 0 9 C-1 8 -1 8 -1.125 4.5 C-1 1 -1 1 0 0 Z " fill="#5C5B3E" transform="translate(319,139)"/>
<path d="M0 0 C1.67542976 0.28604898 3.34385343 0.61781233 5 1 C5 3.31 5 5.62 5 8 C3.34385343 8.38218767 1.67542976 8.71395102 0 9 C-1 8 -1 8 -1.125 4.5 C-1 1 -1 1 0 0 Z " fill="#605F42" transform="translate(217,139)"/>
<path d="M0 0 C1.67542976 0.28604898 3.34385343 0.61781233 5 1 C5 3.31 5 5.62 5 8 C3.34385343 8.38218767 1.67542976 8.71395102 0 9 C-1 8 -1 8 -1.125 4.5 C-1 1 -1 1 0 0 Z " fill="#325C3E" transform="translate(104,139)"/>
<path d="M0 0 C1.67542976 0.28604898 3.34385343 0.61781233 5 1 C5 3.31 5 5.62 5 8 C3.34385343 8.38218767 1.67542976 8.71395102 0 9 C-1 8 -1 8 -1.125 4.5 C-1 1 -1 1 0 0 Z " fill="#205B51" transform="translate(53,139)"/>
<path d="M0 0 C1.67542976 0.28604898 3.34385343 0.61781233 5 1 C5 3.31 5 5.62 5 8 C3.34385343 8.38218767 1.67542976 8.71395102 0 9 C-1 8 -1 8 -1.125 4.5 C-1 1 -1 1 0 0 Z " fill="#A5E9F9" transform="translate(104,87)"/>
<path d="M0 0 C1.67542976 0.28604898 3.34385343 0.61781233 5 1 C5 3.31 5 5.62 5 8 C3.34385343 8.38218767 1.67542976 8.71395102 0 9 C-1 8 -1 8 -1.125 4.5 C-1 1 -1 1 0 0 Z " fill="#355D41" transform="translate(53,87)"/>
<path d="M0 0 C1.67542976 0.28604898 3.34385343 0.61781233 5 1 C5 3.31 5 5.62 5 8 C3.34385343 8.38218767 1.67542976 8.71395102 0 9 C-1 8 -1 8 -1.125 4.5 C-1 1 -1 1 0 0 Z " fill="#5D5C3E" transform="translate(319,87)"/>
<path d="M0 0 C1.67542976 0.28604898 3.34385343 0.61781233 5 1 C5 3.31 5 5.62 5 8 C3.34385343 8.38218767 1.67542976 8.71395102 0 9 C-1 8 -1 8 -1.125 4.5 C-1 1 -1 1 0 0 Z " fill="#5E5D3D" transform="translate(155,87)"/>
<path d="M0 0 C1.67542976 0.28604898 3.34385343 0.61781233 5 1 C5 3.31 5 5.62 5 8 C3.34385343 8.38218767 1.67542976 8.71395102 0 9 C-1 8 -1 8 -1.125 4.5 C-1 1 -1 1 0 0 Z " fill="#565537" transform="translate(268,87)"/>
<path d="M0 0 C1.67542976 0.28604898 3.34385343 0.61781233 5 1 C5 3.31 5 5.62 5 8 C3.34385343 8.38218767 1.67542976 8.71395102 0 9 C-1 8 -1 8 -1.125 4.5 C-1 1 -1 1 0 0 Z " fill="#5C5B3E" transform="translate(217,87)"/>
<path d="M0 0 C1.67542976 0.28604898 3.34385343 0.61781233 5 1 C5 3.31 5 5.62 5 8 C3.34385343 8.38218767 1.67542976 8.71395102 0 9 C-1 8 -1 8 -1.125 4.5 C-1 1 -1 1 0 0 Z " fill="#5D5D3D" transform="translate(166,87)"/>
<path d="M0 0 C1.67542976 0.28604898 3.34385343 0.61781233 5 1 C5 3.31 5 5.62 5 8 C3.34385343 8.38218767 1.67542976 8.71395102 0 9 C-1 8 -1 8 -1.125 4.5 C-1 1 -1 1 0 0 Z " fill="#B3D1EF" transform="translate(53,36)"/>
<path d="M0 0 C1.67542976 0.28604898 3.34385343 0.61781233 5 1 C5 3.31 5 5.62 5 8 C3.34385343 8.38218767 1.67542976 8.71395102 0 9 C-1 8 -1 8 -1.125 4.5 C-1 1 -1 1 0 0 Z " fill="#5C5B3D" transform="translate(319,36)"/>
<path d="M0 0 C1.67542976 0.28604898 3.34385343 0.61781233 5 1 C5 3.31 5 5.62 5 8 C3.34385343 8.38218767 1.67542976 8.71395102 0 9 C-1 8 -1 8 -1.125 4.5 C-1 1 -1 1 0 0 Z " fill="#61623E" transform="translate(166,36)"/>
<path d="M0 0 C1.67542976 0.28604898 3.34385343 0.61781233 5 1 C5 3.31 5 5.62 5 8 C3.34385343 8.38218767 1.67542976 8.71395102 0 9 C-1 8 -1 8 -1.125 4.5 C-1 1 -1 1 0 0 Z " fill="#5E603C" transform="translate(155,36)"/>
<path d="M0 0 C1.67542976 0.28604898 3.34385343 0.61781233 5 1 C5 3.31 5 5.62 5 8 C3.34385343 8.38218767 1.67542976 8.71395102 0 9 C-1 8 -1 8 -1.125 4.5 C-1 1 -1 1 0 0 Z " fill="#505D2A" transform="translate(104,36)"/>
<path d="M0 0 C1.67542976 0.28604898 3.34385343 0.61781233 5 1 C5 3.31 5 5.62 5 8 C3.34385343 8.38218767 1.67542976 8.71395102 0 9 C-1 8 -1 8 -1.125 4.5 C-1 1 -1 1 0 0 Z " fill="#5D5C3E" transform="translate(268,36)"/>
<path d="M0 0 C1.67542976 0.28604898 3.34385343 0.61781233 5 1 C5 3.31 5 5.62 5 8 C3.34385343 8.38218767 1.67542976 8.71395102 0 9 C-1 8 -1 8 -1.125 4.5 C-1 1 -1 1 0 0 Z " fill="#616042" transform="translate(217,36)"/>
<path d="M0 0 C1.67542976 0.28604898 3.34385343 0.61781233 5 1 C5 3.31 5 5.62 5 8 C3.35 8.33 1.7 8.66 0 9 C-1.36623674 6.26752652 -1.128426 4.01801098 -1 1 C-0.67 0.67 -0.34 0.34 0 0 Z " fill="#575739" transform="translate(319,241)"/>
<path d="M0 0 C1.67542976 0.28604898 3.34385343 0.61781233 5 1 C5 3.31 5 5.62 5 8 C3.34385343 8.38218767 1.67542976 8.71395102 0 9 C-1 8 -1 8 -1.125 4.5 C-1 1 -1 1 0 0 Z " fill="#5B5A3C" transform="translate(165,190)"/>
<path d="M0 0 C1.65 0 3.3 0 5 0 C5.84454356 3.37817425 6.10844919 5.67465243 5 9 C3.02 9 1.04 9 -1 9 C-1 9.66 -1 10.32 -1 11 C-2.32 11 -3.64 11 -5 11 C-5 10.01 -5 9.02 -5 8 C-2.69 7.34 -0.38 6.68 2 6 C2 5.01 2 4.02 2 3 C2.66 3 3.32 3 4 3 C4 2.34 4 1.68 4 1 C2.68 0.67 1.36 0.34 0 0 Z " fill="#6C9679" transform="translate(166,139)"/>
<path d="M0 0 C0.33 0 0.66 0 1 0 C0.979375 1.2375 0.95875 2.475 0.9375 3.75 C0.91958262 7.54848384 1.21364061 11.22517266 1.625 15 C2.13691091 20.46973303 1.49288176 24.73100556 0 30 C-0.33 30 -0.66 30 -1 30 C-1.02917234 26.12501596 -1.04685673 22.25006042 -1.0625 18.375 C-1.07087891 17.28058594 -1.07925781 16.18617187 -1.08789062 15.05859375 C-1.09111328 13.99511719 -1.09433594 12.93164062 -1.09765625 11.8359375 C-1.10289307 10.86188965 -1.10812988 9.8878418 -1.11352539 8.88427734 C-0.99414506 5.85124679 -0.55866724 2.98084732 0 0 Z " fill="#2E74A2" transform="translate(367,98)"/>
<path d="M0 0 C1.65 0.33 3.3 0.66 5 1 C5 3.31 5 5.62 5 8 C3.35 8.33 1.7 8.66 0 9 C-0.84454356 5.62182575 -1.10844919 3.32534757 0 0 Z " fill="#8FA8D1" transform="translate(64,36)"/>
<path d="M0 0 C3.96 0 7.92 0 12 0 C11.67 0.99 11.34 1.98 11 3 C7.4375 4.6875 7.4375 4.6875 4 6 C6.64 6.33 9.28 6.66 12 7 C12 7.33 12 7.66 12 8 C8.04 8 4.08 8 0 8 C0 7.01 0 6.02 0 5 C2.31 4.01 4.62 3.02 7 2 C4.69 1.67 2.38 1.34 0 1 C0 0.67 0 0.34 0 0 Z " fill="#404040" transform="translate(9,239)"/>
<path d="M0 0 C0 2.31 0 4.62 0 7 C-1.98 7.33 -3.96 7.66 -6 8 C-6.33 5.69 -6.66 3.38 -7 1 C-3.375 -1.125 -3.375 -1.125 0 0 Z " fill="#D9E7AC" transform="translate(116,37)"/>
<path d="M0 0 C3 1 3 1 4.6875 4.0625 C5.120625 5.031875 5.55375 6.00125 6 7 C6.33 4.69 6.66 2.38 7 0 C7.33 0 7.66 0 8 0 C8 3.96 8 7.92 8 12 C7.01 11.67 6.02 11.34 5 11 C3.3125 7.4375 3.3125 7.4375 2 4 C1.67 6.64 1.34 9.28 1 12 C0.67 12 0.34 12 0 12 C0 8.04 0 4.08 0 0 Z " fill="#3C3C3C" transform="translate(270,337)"/>
<path d="M0 0 C1.66611905 -0.042721 3.33382885 -0.04063832 5 0 C6 1 6 1 6.125 4.5 C6 8 6 8 5 9 C3.00041636 9.04080783 0.99954746 9.04254356 -1 9 C-1 7.68 -1 6.36 -1 5 C-0.34 5 0.32 5 1 5 C1 4.34 1 3.68 1 3 C1.99 3 2.98 3 4 3 C4 2.34 4 1.68 4 1 C2.68 0.67 1.36 0.34 0 0 Z " fill="#689175" transform="translate(63,87)"/>
<path d="M0 0 C2.0625 0.4375 2.0625 0.4375 4 1 C3.01 1.495 3.01 1.495 2 2 C2.99 2.66 3.98 3.32 5 4 C4.67 5.65 4.34 7.3 4 9 C2.35 8.67 0.7 8.34 -1 8 C-1.04241723 5.66705225 -1.04092937 3.33297433 -1 1 C-0.67 0.67 -0.34 0.34 0 0 Z " fill="#90DAE3" transform="translate(123,293)"/>
<path d="M0 0 C1.00016187 2.00032373 1.49396008 3.83125748 2 6 C3.98 6 5.96 6 8 6 C8.33 4.02 8.66 2.04 9 0 C9.66 0.33 10.32 0.66 11 1 C11.1875 3.875 11.1875 3.875 11 7 C7.32003497 9.45331002 5.34586828 9.39507893 1 9 C-1.14809171 5.77786243 -1.29386153 4.72224599 -1 1 C-0.67 0.67 -0.34 0.34 0 0 Z " fill="#636363" transform="translate(11,145)"/>
<path d="M0 0 C0.99 0.33 1.98 0.66 3 1 C3 10.57 3 20.14 3 30 C2.67 30 2.34 30 2 30 C1.98018066 29.26362305 1.96036133 28.52724609 1.93994141 27.76855469 C1.84462172 24.42867944 1.73497004 21.08942361 1.625 17.75 C1.57859375 16.01169922 1.57859375 16.01169922 1.53125 14.23828125 C1.47324219 12.56572266 1.47324219 12.56572266 1.4140625 10.859375 C1.3826416 9.83295898 1.3512207 8.80654297 1.31884766 7.74902344 C1.00363375 5.03132927 0.38967649 3.33075565 -1 1 C-0.67 0.67 -0.34 0.34 0 0 Z " fill="#1B296D" transform="translate(377,18)"/>
<path d="M0 0 C1.65 0 3.3 0 5 0 C5.625 2.375 5.625 2.375 6 5 C5.34 5.66 4.68 6.32 4 7 C4.66 7.66 5.32 8.32 6 9 C4.35 9 2.7 9 1 9 C0.67 6.03 0.34 3.06 0 0 Z " fill="#80986C" transform="translate(224,293)"/>
<path d="M0 0 C2.0625 0.4375 2.0625 0.4375 4 1 C3.01 1.33 2.02 1.66 1 2 C2.32 2.66 3.64 3.32 5 4 C4.67 5.65 4.34 7.3 4 9 C2.35 8.67 0.7 8.34 -1 8 C-1.04241723 5.66705225 -1.04092937 3.33297433 -1 1 C-0.67 0.67 -0.34 0.34 0 0 Z " fill="#8DCDE0" transform="translate(123,87)"/>
<path d="M0 0 C0.33 0.66 0.66 1.32 1 2 C-0.2065625 1.9690625 -0.2065625 1.9690625 -1.4375 1.9375 C-3.93354885 1.70366379 -3.93354885 1.70366379 -5 3 C-5.36760731 5.32817964 -5.70241581 7.6618385 -6 10 C-3.69 10 -1.38 10 1 10 C0.67 10.66 0.34 11.32 0 12 C-2.3431213 11.74438677 -4.67843403 11.40729228 -7 11 C-8.52150158 7.95699684 -8.23899393 5.345915 -8 2 C-4.77208445 -0.1519437 -3.71599191 -0.20086443 0 0 Z " fill="#575757" transform="translate(166,337)"/>
<path d="M0 0 C0.99 0.33 1.98 0.66 3 1 C3 3.64 3 6.28 3 9 C1.68 9 0.36 9 -1 9 C-1.09765625 2.84765625 -1.09765625 2.84765625 -1 1 C-0.67 0.67 -0.34 0.34 0 0 Z " fill="#F0F0F0" transform="translate(398,319)"/>
<path d="M0 0 C1.65 0.33 3.3 0.66 5 1 C5 3.31 5 5.62 5 8 C3.35 8.33 1.7 8.66 0 9 C0.99 8.67 1.98 8.34 3 8 C3 7.01 3 6.02 3 5 C1.68 4.67 0.36 4.34 -1 4 C-0.67 2.68 -0.34 1.36 0 0 Z " fill="#3A6F65" transform="translate(72,139)"/>
<path d="M0 0 C0.33 0.66 0.66 1.32 1 2 C3.02463255 2.65213292 3.02463255 2.65213292 5 3 C4.67 4.65 4.34 6.3 4 8 C2.35 7.67 0.7 7.34 -1 7 C-1.04254356 5.00045254 -1.04080783 2.99958364 -1 1 C-0.67 0.67 -0.34 0.34 0 0 Z " fill="#8CC9DE" transform="translate(115,88)"/>
<path d="M0 0 C0.33 0 0.66 0 1 0 C1.33 3.3 1.66 6.6 2 10 C4.31 10.33 6.62 10.66 9 11 C9 11.66 9 12.32 9 13 C6.03 13 3.06 13 0 13 C-1.29676812 8.38926889 -0.71109139 4.66159911 0 0 Z " fill="#A4A497" transform="translate(380,312)"/>
<path d="M0 0 C0.99 0.33 1.98 0.66 3 1 C2.34 1 1.68 1 1 1 C1.33 2.65 1.66 4.3 2 6 C2.99 6.33 3.98 6.66 5 7 C4.34 10.63 3.68 14.26 3 18 C2.67 18 2.34 18 2 18 C1.85714286 10.57142857 1.85714286 10.57142857 3 7 C2.01 7 1.02 7 0 7 C-1.125 2.25 -1.125 2.25 0 0 Z " fill="#E0EDC2" transform="translate(377,257)"/>
<path d="M0 0 C1.32 0 2.64 0 4 0 C4 3.63 4 7.26 4 11 C4.66 11.33 5.32 11.66 6 12 C4.02 12 2.04 12 0 12 C0 11.34 0 10.68 0 10 C0.66 10 1.32 10 2 10 C2 7.36 2 4.72 2 2 C1.34 2 0.68 2 0 2 C0 1.34 0 0.68 0 0 Z " fill="#585858" transform="translate(397,10)"/>
<path d="M0 0 C2.31 0 4.62 0 7 0 C7 0.33 7 0.66 7 1 C5.35 1 3.7 1 2 1 C2 2.32 2 3.64 2 5 C3.32 5.33 4.64 5.66 6 6 C4.68 6 3.36 6 2 6 C2 7.98 2 9.96 2 12 C1.34 12 0.68 12 0 12 C0 8.04 0 4.08 0 0 Z " fill="#535353" transform="translate(55,337)"/>
<path d="M0 0 C0.66 0 1.32 0 2 0 C3.4783226 2.95664519 3.06032783 5.74229737 3 9 C1.68 9 0.36 9 -1 9 C-1.09765625 2.84765625 -1.09765625 2.84765625 -1 1 C-0.67 0.67 -0.34 0.34 0 0 Z " fill="#F4F4F4" transform="translate(398,196)"/>
<path d="M0 0 C1.32 0.33 2.64 0.66 4 1 C4 3.31 4 5.62 4 8 C2.68 8 1.36 8 0 8 C0 5.36 0 2.72 0 0 Z " fill="#F4F4F4" transform="translate(397,135)"/>
<path d="M0 0 C0.33 0 0.66 0 1 0 C1 1.65 1 3.3 1 5 C2.32 5 3.64 5 5 5 C5.33 3.68 5.66 2.36 6 1 C6 2.32 6 3.64 6 5 C7.98 5 9.96 5 12 5 C12 5.66 12 6.32 12 7 C8.04 7 4.08 7 0 7 C0 4.69 0 2.38 0 0 Z " fill="#555555" transform="translate(11,46)"/>
<path d="M0 0 C0.66 0.33 1.32 0.66 2 1 C2 3.64 2 6.28 2 9 C1.01 9.495 1.01 9.495 0 10 C-0.66 9.67 -1.32 9.34 -2 9 C-2.25 3.375 -2.25 3.375 0 0 Z " fill="#F5F5F5" transform="translate(413,319)"/>
<path d="M0 0 C1.98 0 3.96 0 6 0 C6.042721 1.66611905 6.04063832 3.33382885 6 5 C5 6 5 6 2.4375 6.0625 C1.2309375 6.0315625 1.2309375 6.0315625 0 6 C0 4.02 0 2.04 0 0 Z " fill="#ECECEC" transform="translate(57,338)"/>
<path d="M0 0 C1.32 0.33 2.64 0.66 4 1 C4 3.31 4 5.62 4 8 C2.68 8 1.36 8 0 8 C0 5.36 0 2.72 0 0 Z " fill="#F8F8F8" transform="translate(397,258)"/>
<path d="M0 0 C1.32 0.33 2.64 0.66 4 1 C4 3.31 4 5.62 4 8 C2.68 8 1.36 8 0 8 C0 5.36 0 2.72 0 0 Z " fill="#F8F8F8" transform="translate(397,74)"/>
<path d="M0 0 C1.66666667 0 3.33333333 0 5 0 C5.125 2.375 5.125 2.375 5 5 C4.34 5.66 3.68 6.32 3 7 C0.875 6.625 0.875 6.625 -1 6 C-0.67 4.02 -0.34 2.04 0 0 Z " fill="#3587B2" transform="translate(109,89)"/>
<path d="M0 0 C0.66 0 1.32 0 2 0 C2.625 3.375 2.625 3.375 3 7 C2.34 7.66 1.68 8.32 1 9 C1 8.34 1 7.68 1 7 C-0.32 7 -1.64 7 -3 7 C-2.38722388 4.03824877 -1.74627478 2.61941217 0 0 Z " fill="#6E6E50" transform="translate(176,36)"/>
<path d="M0 0 C0.99 0 1.98 0 3 0 C3 2.64 3 5.28 3 8 C1.68 7.67 0.36 7.34 -1 7 C-1.04254356 5.00045254 -1.04080783 2.99958364 -1 1 C-0.67 0.67 -0.34 0.34 0 0 Z " fill="#F9F9F9" transform="translate(412,12)"/>
<path d="M0 0 C1.65 0 3.3 0 5 0 C4.01 0.33 3.02 0.66 2 1 C2 1.66 2 2.32 2 3 C3.32 3.33 4.64 3.66 6 4 C5.67 5.65 5.34 7.3 5 9 C3.35 9 1.7 9 0 9 C0.99 8.34 1.98 7.68 3 7 C3 6.34 3 5.68 3 5 C2.01 4.67 1.02 4.34 0 4 C0 2.68 0 1.36 0 0 Z " fill="#9BE9F4" transform="translate(114,293)"/>
<path d="M0 0 C0.66 1.32 1.32 2.64 2 4 C3.32 4 4.64 4 6 4 C6.33 4.99 6.66 5.98 7 7 C4.33333333 7 1.66666667 7 -1 7 C-0.67 4.69 -0.34 2.38 0 0 Z " fill="#E9EBC5" transform="translate(171,39)"/>
<path d="M0 0 C0.33 0.99 0.66 1.98 1 3 C4.3 2.34 7.6 1.68 11 1 C11.33 2.32 11.66 3.64 12 5 C8.04 4.67 4.08 4.34 0 4 C0 2.68 0 1.36 0 0 Z " fill="#FBFDE3" transform="translate(367,320)"/>
<path d="M0 0 C1.32 0 2.64 0 4 0 C4 2.64 4 5.28 4 8 C4.66 8.33 5.32 8.66 6 9 C4.02 9 2.04 9 0 9 C0.66 8.67 1.32 8.34 2 8 C2 6.02 2 4.04 2 2 C1.34 2 0.68 2 0 2 C0 1.34 0 0.68 0 0 Z " fill="#697143" transform="translate(328,293)"/>
<path d="M0 0 C1.32 0 2.64 0 4 0 C4 2.64 4 5.28 4 8 C4.66 8.33 5.32 8.66 6 9 C4.02 9 2.04 9 0 9 C0.66 8.67 1.32 8.34 2 8 C2 6.02 2 4.04 2 2 C1.34 2 0.68 2 0 2 C0 1.34 0 0.68 0 0 Z " fill="#466C52" transform="translate(174,139)"/>
<path d="M0 0 C1.32 0 2.64 0 4 0 C4 2.64 4 5.28 4 8 C4.66 8.33 5.32 8.66 6 9 C4.02 9 2.04 9 0 9 C0.66 8.67 1.32 8.34 2 8 C2 6.02 2 4.04 2 2 C1.34 2 0.68 2 0 2 C0 1.34 0 0.68 0 0 Z " fill="#456C50" transform="translate(122,139)"/>
<path d="M0 0 C2.30925485 2.44579177 2.99001814 3.59442134 3.07421875 7.015625 C2.94660156 8.08296875 2.81898438 9.1503125 2.6875 10.25 C2.56761719 11.32765625 2.44773437 12.4053125 2.32421875 13.515625 C2.21722656 14.33546875 2.11023438 15.1553125 2 16 C1.67 16 1.34 16 1 16 C1 13.36 1 10.72 1 8 C0.01 7.67 -0.98 7.34 -2 7 C-1.34 7 -0.68 7 0 7 C0 4.69 0 2.38 0 0 Z " fill="#3199BC" transform="translate(378,136)"/>
<path d="M0 0 C1.32 0 2.64 0 4 0 C4.042721 1.66611905 4.04063832 3.33382885 4 5 C3 6 3 6 -0.5625 6.0625 C-1.696875 6.041875 -2.83125 6.02125 -4 6 C-3.67 5.34 -3.34 4.68 -3 4 C-1.35 4 0.3 4 2 4 C2 3.01 2 2.02 2 1 C1.34 0.67 0.68 0.34 0 0 Z " fill="#696969" transform="translate(111,343)"/>
<path d="M0 0 C0.99 0.33 1.98 0.66 3 1 C3 2.65 3 4.3 3 6 C1.68 6 0.36 6 -1 6 C-1.042721 4.33388095 -1.04063832 2.66617115 -1 1 C-0.67 0.67 -0.34 0.34 0 0 Z " fill="#E6E5CB" transform="translate(166,294)"/>
<path d="M0 0 C1.5625 1 1.5625 1 3 3 C3.06881101 5.85565675 2.59528685 8.16093962 2 11 C1.01 11.495 1.01 11.495 0 12 C-0.66 11.34 -1.32 10.68 -2 10 C-1.01 10 -0.02 10 1 10 C0.67039784 4.98464948 0.67039784 4.98464948 -2 1 C-1.34 0.67 -0.68 0.34 0 0 Z " fill="#6E6E6E" transform="translate(400,256)"/>
<path d="M0 0 C0.33 0 0.66 0 1 0 C1 2.64 1 5.28 1 8 C-0.65 8.33 -2.3 8.66 -4 9 C-2.94124926 5.59687262 -1.99097846 2.98646769 0 0 Z " fill="#A2A2A2" transform="translate(413,195)"/>
<path d="M0 0 C2 2 2 2 2.1875 5.5625 C2 9 2 9 1 10 C-0.66617115 10.04063832 -2.33388095 10.042721 -4 10 C-2.68 9.34 -1.36 8.68 0 8 C0 6.68 0 5.36 0 4 C-1.32 3.34 -2.64 2.68 -4 2 C-2.68 1.34 -1.36 0.68 0 0 Z " fill="#3385AE" transform="translate(127,87)"/>
<path d="M0 0 C0.99 0.33 1.98 0.66 3 1 C3 2.65 3 4.3 3 6 C1.68 6 0.36 6 -1 6 C-1.042721 4.33388095 -1.04063832 2.66617115 -1 1 C-0.67 0.67 -0.34 0.34 0 0 Z " fill="#E5E4CA" transform="translate(269,88)"/>
<path d="M0 0 C1.5625 1 1.5625 1 3 3 C3.06881101 5.85565675 2.59528685 8.16093962 2 11 C1.01 11.495 1.01 11.495 0 12 C-0.66 11.34 -1.32 10.68 -2 10 C-1.01 10 -0.02 10 1 10 C0.67039784 4.98464948 0.67039784 4.98464948 -2 1 C-1.34 0.67 -0.68 0.34 0 0 Z " fill="#6E6E6E" transform="translate(400,72)"/>
<path d="M0 0 C2.475 0.495 2.475 0.495 5 1 C4.67 2.32 4.34 3.64 4 5 C2.68 5 1.36 5 0 5 C0 3.35 0 1.7 0 0 Z " fill="#DBDBDB" transform="translate(220,343)"/>
<path d="M0 0 C0.99 0.33 1.98 0.66 3 1 C3 2.65 3 4.3 3 6 C2.01 6.33 1.02 6.66 0 7 C-0.38133299 5.0085944 -0.71325582 3.00720923 -1 1 C-0.67 0.67 -0.34 0.34 0 0 Z " fill="#E8E7CD" transform="translate(269,294)"/>
<path d="M0 0 C0.66 0 1.32 0 2 0 C2.33 1.98 2.66 3.96 3 6 C1.68 6 0.36 6 -1 6 C-1.042721 4.33388095 -1.04063832 2.66617115 -1 1 C-0.67 0.67 -0.34 0.34 0 0 Z " fill="#BFD5AC" transform="translate(208,294)"/>
<path d="M0 0 C0.99 0.33 1.98 0.66 3 1 C3 2.65 3 4.3 3 6 C1.68 6 0.36 6 -1 6 C-0.67 4.02 -0.34 2.04 0 0 Z " fill="#D9E1B2" transform="translate(54,294)"/>
<path d="M0 0 C0.99 0.33 1.98 0.66 3 1 C3 2.65 3 4.3 3 6 C1.68 6 0.36 6 -1 6 C-0.67 4.02 -0.34 2.04 0 0 Z " fill="#E8E8CB" transform="translate(320,242)"/>
<path d="M0 0 C0.99 0.33 1.98 0.66 3 1 C3 2.65 3 4.3 3 6 C1.68 6 0.36 6 -1 6 C-0.67 4.02 -0.34 2.04 0 0 Z " fill="#E7E6CC" transform="translate(269,242)"/>
<path d="M0 0 C0.99 0.33 1.98 0.66 3 1 C3 2.65 3 4.3 3 6 C2.01 6.33 1.02 6.66 0 7 C-0.38133299 5.0085944 -0.71325582 3.00720923 -1 1 C-0.67 0.67 -0.34 0.34 0 0 Z " fill="#E8E7CC" transform="translate(269,191)"/>
<path d="M0 0 C0.99 0.33 1.98 0.66 3 1 C3 2.65 3 4.3 3 6 C2.01 6.33 1.02 6.66 0 7 C-0.38133299 5.0085944 -0.71325582 3.00720923 -1 1 C-0.67 0.67 -0.34 0.34 0 0 Z " fill="#E8E7CC" transform="translate(320,191)"/>
<path d="M0 0 C0.99 0.33 1.98 0.66 3 1 C3 2.65 3 4.3 3 6 C2.01 6.33 1.02 6.66 0 7 C-0.38133299 5.0085944 -0.71325582 3.00720923 -1 1 C-0.67 0.67 -0.34 0.34 0 0 Z " fill="#E8E7CC" transform="translate(64,191)"/>
<path d="M0 0 C1.98 0.495 1.98 0.495 4 1 C4 2.32 4 3.64 4 5 C2.35 5 0.7 5 -1 5 C-0.67 3.35 -0.34 1.7 0 0 Z " fill="#DADADA" transform="translate(16,190)"/>
<path d="M0 0 C0.99 0.33 1.98 0.66 3 1 C3 2.65 3 4.3 3 6 C1.68 6 0.36 6 -1 6 C-0.67 4.02 -0.34 2.04 0 0 Z " fill="#E7E6CB" transform="translate(269,140)"/>
<path d="M0 0 C0.66 0 1.32 0 2 0 C2.33 1.98 2.66 3.96 3 6 C1.68 6 0.36 6 -1 6 C-1.042721 4.33388095 -1.04063832 2.66617115 -1 1 C-0.67 0.67 -0.34 0.34 0 0 Z " fill="#4189AE" transform="translate(105,88)"/>
<path d="M0 0 C0.99 0 1.98 0 3 0 C3 1.98 3 3.96 3 6 C1.68 6 0.36 6 -1 6 C-1.042721 4.33388095 -1.04063832 2.66617115 -1 1 C-0.67 0.67 -0.34 0.34 0 0 Z " fill="#F3F3F3" transform="translate(13,45)"/>
<path d="M0 0 C2.475 0.99 2.475 0.99 5 2 C5.33 1.34 5.66 0.68 6 0 C6.66 0 7.32 0 8 0 C6.95125002 2.62187494 6.35068687 3.79371361 3.875 5.25 C3.25625 5.4975 2.6375 5.745 2 6 C2 5.01 2 4.02 2 3 C1.34 3 0.68 3 0 3 C0 2.01 0 1.02 0 0 Z " fill="#D4EDBD" transform="translate(213,295)"/>
<path d="M0 0 C0.66 0 1.32 0 2 0 C2.33 1.98 2.66 3.96 3 6 C1.68 6 0.36 6 -1 6 C-0.67 4.02 -0.34 2.04 0 0 Z " fill="#ECEBD0" transform="translate(218,242)"/>
<path d="M0 0 C0.66 0 1.32 0 2 0 C2.33 1.98 2.66 3.96 3 6 C1.68 6 0.36 6 -1 6 C-0.67 4.02 -0.34 2.04 0 0 Z " fill="#EAE9CE" transform="translate(115,242)"/>
<path d="M0 0 C0.66 0 1.32 0 2 0 C2.33 1.98 2.66 3.96 3 6 C1.68 6 0.36 6 -1 6 C-0.67 4.02 -0.34 2.04 0 0 Z " fill="#EAE9CF" transform="translate(166,242)"/>
<path d="M0 0 C0.99 0.33 1.98 0.66 3 1 C2.67 2.98 2.34 4.96 2 7 C1.34 7 0.68 7 0 7 C-0.38133299 5.0085944 -0.71325582 3.00720923 -1 1 C-0.67 0.67 -0.34 0.34 0 0 Z " fill="#EBEACF" transform="translate(166,191)"/>
<path d="M0 0 C0.99 0.33 1.98 0.66 3 1 C2.67 2.98 2.34 4.96 2 7 C1.34 7 0.68 7 0 7 C-0.38133299 5.0085944 -0.71325582 3.00720923 -1 1 C-0.67 0.67 -0.34 0.34 0 0 Z " fill="#EBEACF" transform="translate(115,191)"/>
<path d="M0 0 C0.66 0 1.32 0 2 0 C2.33 1.98 2.66 3.96 3 6 C1.68 6 0.36 6 -1 6 C-0.67 4.02 -0.34 2.04 0 0 Z " fill="#EAE8CE" transform="translate(320,140)"/>
<path d="M0 0 C0.66 0 1.32 0 2 0 C2.33 1.98 2.66 3.96 3 6 C1.68 6 0.36 6 -1 6 C-0.67 4.02 -0.34 2.04 0 0 Z " fill="#80B7AE" transform="translate(54,140)"/>
<path d="M0 0 C0.66 0 1.32 0 2 0 C2.33 1.98 2.66 3.96 3 6 C1.68 6 0.36 6 -1 6 C-0.67 4.02 -0.34 2.04 0 0 Z " fill="#A2C8AC" transform="translate(105,140)"/>
<path d="M0 0 C0.66 0 1.32 0 2 0 C3.125 4.75 3.125 4.75 2 7 C1.01 6.67 0.02 6.34 -1 6 C-1.042721 4.33388095 -1.04063832 2.66617115 -1 1 C-0.67 0.67 -0.34 0.34 0 0 Z " fill="#EAE9CD" transform="translate(320,88)"/>
<path d="M0 0 C0.99 0.33 1.98 0.66 3 1 C2.67 2.98 2.34 4.96 2 7 C1.34 7 0.68 7 0 7 C-0.38133299 5.0085944 -0.71325582 3.00720923 -1 1 C-0.67 0.67 -0.34 0.34 0 0 Z " fill="#EAE9D0" transform="translate(218,88)"/>
<path d="M0 0 C0.33 1.65 0.66 3.3 1 5 C0.34 5 -0.32 5 -1 5 C-1.33 5.66 -1.66 6.32 -2 7 C-2.28875 6.38125 -2.5775 5.7625 -2.875 5.125 C-3.93720042 2.86674235 -3.93720042 2.86674235 -6 1 C-3.92446352 0.4465236 -2.15634036 0 0 0 Z " fill="#A0CDAE" transform="translate(72,85)"/>
<path d="M0 0 C4 4.625 4 4.625 4 8 C2.02 8 0.04 8 -2 8 C-1.34 5.36 -0.68 2.72 0 0 Z " fill="#E8EABF" transform="translate(160,39)"/>
<path d="M0 0 C0.66 0 1.32 0 2 0 C3.125 4.75 3.125 4.75 2 7 C1.01 6.67 0.02 6.34 -1 6 C-1.042721 4.33388095 -1.04063832 2.66617115 -1 1 C-0.67 0.67 -0.34 0.34 0 0 Z " fill="#EAE9CD" transform="translate(320,37)"/>
<path d="M0 0 C0.66 0.33 1.32 0.66 2 1 C2 4.3 2 7.6 2 11 C1.34 11 0.68 11 0 11 C-1.625 9 -1.625 9 -3 7 C-2.01 6.67 -1.02 6.34 0 6 C0 4.02 0 2.04 0 0 Z " fill="#304E92" transform="translate(62,36)"/>
<path d="M0 0 C0.99 0.33 1.98 0.66 3 1 C3 2.65 3 4.3 3 6 C2.01 6.33 1.02 6.66 0 7 C-1.125 2.25 -1.125 2.25 0 0 Z " fill="#EAE9CF" transform="translate(269,37)"/>
<path d="M0 0 C0.66 0 1.32 0 2 0 C3.125 4.75 3.125 4.75 2 7 C1.01 6.67 0.02 6.34 -1 6 C-1.042721 4.33388095 -1.04063832 2.66617115 -1 1 C-0.67 0.67 -0.34 0.34 0 0 Z " fill="#D5E1B2" transform="translate(105,37)"/>
<path d="M0 0 C0.33 0.66 0.66 1.32 1 2 C-0.32 2.99 -1.64 3.98 -3 5 C-4.32 3.68 -5.64 2.36 -7 1 C-3.375 -1.125 -3.375 -1.125 0 0 Z " fill="#F3F5CB" transform="translate(177,34)"/>
<path d="M0 0 C2.31 0.33 4.62 0.66 7 1 C7.33 2.32 7.66 3.64 8 5 C7.34 5 6.68 5 6 5 C6 4.01 6 3.02 6 2 C3.52733235 2.34444881 3.52733235 2.34444881 1 3 C0.67 3.66 0.34 4.32 0 5 C-0.66 5 -1.32 5 -2 5 C-1.34 3.35 -0.68 1.7 0 0 Z " fill="#4B4B4B" transform="translate(210,344)"/>
<path d="M0 0 C0.66 0 1.32 0 2 0 C3.125 4.75 3.125 4.75 2 7 C1.34 7 0.68 7 0 7 C-0.38133299 5.0085944 -0.71325582 3.00720923 -1 1 C-0.67 0.67 -0.34 0.34 0 0 Z " fill="#51A3B5" transform="translate(105,294)"/>
<path d="M0 0 C0.66 0 1.32 0 2 0 C2.33 1.98 2.66 3.96 3 6 C2.01 6.33 1.02 6.66 0 7 C-1.125 2.25 -1.125 2.25 0 0 Z " fill="#A4C9B0" transform="translate(157,140)"/>
<path d="M0 0 C0.66 0 1.32 0 2 0 C3.125 4.75 3.125 4.75 2 7 C1.34 7 0.68 7 0 7 C-0.38133299 5.0085944 -0.71325582 3.00720923 -1 1 C-0.67 0.67 -0.34 0.34 0 0 Z " fill="#EBEACD" transform="translate(156,88)"/>
<path d="M0 0 C0.66 0 1.32 0 2 0 C3.125 4.75 3.125 4.75 2 7 C1.34 7 0.68 7 0 7 C-0.38133299 5.0085944 -0.71325582 3.00720923 -1 1 C-0.67 0.67 -0.34 0.34 0 0 Z " fill="#EBEACC" transform="translate(167,88)"/>
<path d="M0 0 C0.66 0 1.32 0 2 0 C2.33 1.98 2.66 3.96 3 6 C2.01 6.33 1.02 6.66 0 7 C-1.125 2.25 -1.125 2.25 0 0 Z " fill="#A4C9B0" transform="translate(54,88)"/>
<path d="M0 0 C0.66 0 1.32 0 2 0 C2.33 1.98 2.66 3.96 3 6 C2.01 6.33 1.02 6.66 0 7 C-1.125 2.25 -1.125 2.25 0 0 Z " fill="#3B5489" transform="translate(54,37)"/>
<path d="M0 0 C0.99 0.33 1.98 0.66 3 1 C2.34 2.98 1.68 4.96 1 7 C0.01 6.67 -0.98 6.34 -2 6 C-2 4.35 -2 2.7 -2 1 C-1.34 0.67 -0.68 0.34 0 0 Z " fill="#F0F2C9" transform="translate(180,38)"/>
<path d="M0 0 C3 3.75 3 3.75 3 6 C0.69 6.33 -1.62 6.66 -4 7 C-4.33 6.34 -4.66 5.68 -5 5 C-3.68 4.67 -2.36 4.34 -1 4 C-0.67 2.68 -0.34 1.36 0 0 Z " fill="#47A7C0" transform="translate(109,297)"/>
<path d="M0 0 C0.66 0 1.32 0 2 0 C3.125 4.75 3.125 4.75 2 7 C1.34 7 0.68 7 0 7 C-1.125 2.25 -1.125 2.25 0 0 Z " fill="#E2EABA" transform="translate(311,294)"/>
<path d="M0 0 C0.66 0 1.32 0 2 0 C3.125 4.75 3.125 4.75 2 7 C1.34 7 0.68 7 0 7 C-1.125 2.25 -1.125 2.25 0 0 Z " fill="#F0EFD4" transform="translate(218,140)"/>
<path d="M0 0 C1.32 0 2.64 0 4 0 C4 1.65 4 3.3 4 5 C2.0625 4.6875 2.0625 4.6875 0 4 C-0.33 3.01 -0.66 2.02 -1 1 C-0.67 0.67 -0.34 0.34 0 0 Z " fill="#ADADAD" transform="translate(411,72)"/>
<path d="M0 0 C0.66 0 1.32 0 2 0 C3.125 4.75 3.125 4.75 2 7 C1.34 7 0.68 7 0 7 C-1.125 2.25 -1.125 2.25 0 0 Z " fill="#ECECCE" transform="translate(156,37)"/>
<path d="M0 0 C0.66 0 1.32 0 2 0 C3.125 4.75 3.125 4.75 2 7 C1.34 7 0.68 7 0 7 C-1.125 2.25 -1.125 2.25 0 0 Z " fill="#EAEBCB" transform="translate(167,37)"/>
<path d="M0 0 C0.66 0 1.32 0 2 0 C3.125 4.75 3.125 4.75 2 7 C1.34 7 0.68 7 0 7 C-1.125 2.25 -1.125 2.25 0 0 Z " fill="#F0EFD5" transform="translate(218,37)"/>
<path d="M0 0 C1.65 0.33 3.3 0.66 5 1 C6.09658936 4.28976808 5.79953138 5.71303767 5 9 C4.67 9 4.34 9 4 9 C4 6.69 4 4.38 4 2 C2.68 2.33 1.36 2.66 0 3 C0 2.01 0 1.02 0 0 Z " fill="#797979" transform="translate(411,10)"/>
<path d="M0 0 C0.99 0.33 1.98 0.66 3 1 C3 3.97 3 6.94 3 10 C2.67 10 2.34 10 2 10 C0.68373308 6.38026598 0 3.90432869 0 0 Z " fill="#0E205A" transform="translate(377,18)"/>
<path d="M0 0 C2.475 0.495 2.475 0.495 5 1 C4.67 1.99 4.34 2.98 4 4 C2.68 4 1.36 4 0 4 C0 2.68 0 1.36 0 0 Z " fill="#DADADA" transform="translate(220,338)"/>
<path d="M0 0 C0.99 0.33 1.98 0.66 3 1 C3 2.32 3 3.64 3 5 C1.68 5 0.36 5 -1 5 C-0.67 3.35 -0.34 1.7 0 0 Z " fill="#D8D8D8" transform="translate(11,190)"/>
<path d="M0 0 C2.97 0.495 2.97 0.495 6 1 C5.67 2.32 5.34 3.64 5 5 C2.525 4.01 2.525 4.01 0 3 C0 2.01 0 1.02 0 0 Z " fill="#539EBE" transform="translate(114,86)"/>
<path d="M0 0 C0.99 0.33 1.98 0.66 3 1 C2.34 1 1.68 1 1 1 C1.66 2.98 2.32 4.96 3 7 C2.01 7 1.02 7 0 7 C-1.125 2.25 -1.125 2.25 0 0 Z " fill="#D3EDB1" transform="translate(377,257)"/>
<path d="M0 0 C0.99 0 1.98 0 3 0 C3 1.32 3 2.64 3 4 C1.68 3.67 0.36 3.34 -1 3 C-0.67 2.01 -0.34 1.02 0 0 Z M0 4 C0.33 4.99 0.66 5.98 1 7 C0.34 6.67 -0.32 6.34 -1 6 C-0.67 5.34 -0.34 4.68 0 4 Z " fill="#E8E8C4" transform="translate(162,89)"/>
</svg>
